<mxfile host="app.diagrams.net" agent="Mozilla/5.0 (Windows NT 10.0; Win64; x64) AppleWebKit/537.36 (KHTML, like Gecko) Chrome/129.0.0.0 Safari/537.36" version="24.7.17">
  <diagram id="BUScT8r4eNOHsG4musA1" name="PÃ¡gina-1">
    <mxGraphModel dx="3627" dy="1110" grid="1" gridSize="10" guides="1" tooltips="1" connect="1" arrows="1" fold="1" page="1" pageScale="1" pageWidth="827" pageHeight="1169" math="0" shadow="0">
      <root>
        <mxCell id="0" />
        <mxCell id="1" parent="0" />
        <mxCell id="KgRT0N7U9_jlhOVH3Q5B-1" value="clientes" style="swimlane;fontStyle=0;childLayout=stackLayout;horizontal=1;startSize=30;horizontalStack=0;resizeParent=1;resizeParentMax=0;resizeLast=0;collapsible=1;marginBottom=0;whiteSpace=wrap;html=1;" parent="1" vertex="1">
          <mxGeometry x="890" y="30" width="140" height="330" as="geometry">
            <mxRectangle x="200" y="80" width="60" height="30" as="alternateBounds" />
          </mxGeometry>
        </mxCell>
        <mxCell id="KgRT0N7U9_jlhOVH3Q5B-2" value="&lt;b style=&quot;&quot;&gt;&lt;u&gt;id_cliente&lt;/u&gt;&lt;/b&gt;" style="text;strokeColor=none;fillColor=none;align=left;verticalAlign=middle;spacingLeft=4;spacingRight=4;overflow=hidden;points=[[0,0.5],[1,0.5]];portConstraint=eastwest;rotatable=0;whiteSpace=wrap;html=1;" parent="KgRT0N7U9_jlhOVH3Q5B-1" vertex="1">
          <mxGeometry y="30" width="140" height="30" as="geometry" />
        </mxCell>
        <mxCell id="KgRT0N7U9_jlhOVH3Q5B-3" value="nombre" style="text;strokeColor=none;fillColor=none;align=left;verticalAlign=middle;spacingLeft=4;spacingRight=4;overflow=hidden;points=[[0,0.5],[1,0.5]];portConstraint=eastwest;rotatable=0;whiteSpace=wrap;html=1;" parent="KgRT0N7U9_jlhOVH3Q5B-1" vertex="1">
          <mxGeometry y="60" width="140" height="30" as="geometry" />
        </mxCell>
        <mxCell id="KgRT0N7U9_jlhOVH3Q5B-4" value="apellido_paterno" style="text;strokeColor=none;fillColor=none;align=left;verticalAlign=middle;spacingLeft=4;spacingRight=4;overflow=hidden;points=[[0,0.5],[1,0.5]];portConstraint=eastwest;rotatable=0;whiteSpace=wrap;html=1;" parent="KgRT0N7U9_jlhOVH3Q5B-1" vertex="1">
          <mxGeometry y="90" width="140" height="30" as="geometry" />
        </mxCell>
        <mxCell id="KgRT0N7U9_jlhOVH3Q5B-6" value="apellido_materno" style="text;strokeColor=none;fillColor=none;align=left;verticalAlign=middle;spacingLeft=4;spacingRight=4;overflow=hidden;points=[[0,0.5],[1,0.5]];portConstraint=eastwest;rotatable=0;whiteSpace=wrap;html=1;" parent="KgRT0N7U9_jlhOVH3Q5B-1" vertex="1">
          <mxGeometry y="120" width="140" height="30" as="geometry" />
        </mxCell>
        <mxCell id="KgRT0N7U9_jlhOVH3Q5B-7" value="genero_id" style="text;strokeColor=none;fillColor=none;align=left;verticalAlign=middle;spacingLeft=4;spacingRight=4;overflow=hidden;points=[[0,0.5],[1,0.5]];portConstraint=eastwest;rotatable=0;whiteSpace=wrap;html=1;" parent="KgRT0N7U9_jlhOVH3Q5B-1" vertex="1">
          <mxGeometry y="150" width="140" height="30" as="geometry" />
        </mxCell>
        <mxCell id="KgRT0N7U9_jlhOVH3Q5B-9" value="direccion_cliente_id" style="text;strokeColor=none;fillColor=none;align=left;verticalAlign=middle;spacingLeft=4;spacingRight=4;overflow=hidden;points=[[0,0.5],[1,0.5]];portConstraint=eastwest;rotatable=0;whiteSpace=wrap;html=1;" parent="KgRT0N7U9_jlhOVH3Q5B-1" vertex="1">
          <mxGeometry y="180" width="140" height="30" as="geometry" />
        </mxCell>
        <mxCell id="KgRT0N7U9_jlhOVH3Q5B-10" value="telefono" style="text;strokeColor=none;fillColor=none;align=left;verticalAlign=middle;spacingLeft=4;spacingRight=4;overflow=hidden;points=[[0,0.5],[1,0.5]];portConstraint=eastwest;rotatable=0;whiteSpace=wrap;html=1;" parent="KgRT0N7U9_jlhOVH3Q5B-1" vertex="1">
          <mxGeometry y="210" width="140" height="30" as="geometry" />
        </mxCell>
        <mxCell id="KgRT0N7U9_jlhOVH3Q5B-11" value="correo" style="text;strokeColor=none;fillColor=none;align=left;verticalAlign=middle;spacingLeft=4;spacingRight=4;overflow=hidden;points=[[0,0.5],[1,0.5]];portConstraint=eastwest;rotatable=0;whiteSpace=wrap;html=1;" parent="KgRT0N7U9_jlhOVH3Q5B-1" vertex="1">
          <mxGeometry y="240" width="140" height="30" as="geometry" />
        </mxCell>
        <mxCell id="KgRT0N7U9_jlhOVH3Q5B-14" value="carnet_id" style="text;strokeColor=none;fillColor=none;align=left;verticalAlign=middle;spacingLeft=4;spacingRight=4;overflow=hidden;points=[[0,0.5],[1,0.5]];portConstraint=eastwest;rotatable=0;whiteSpace=wrap;html=1;" parent="KgRT0N7U9_jlhOVH3Q5B-1" vertex="1">
          <mxGeometry y="270" width="140" height="30" as="geometry" />
        </mxCell>
        <mxCell id="KgRT0N7U9_jlhOVH3Q5B-15" value="nivel_educativo_id" style="text;strokeColor=none;fillColor=none;align=left;verticalAlign=middle;spacingLeft=4;spacingRight=4;overflow=hidden;points=[[0,0.5],[1,0.5]];portConstraint=eastwest;rotatable=0;whiteSpace=wrap;html=1;" parent="KgRT0N7U9_jlhOVH3Q5B-1" vertex="1">
          <mxGeometry y="300" width="140" height="30" as="geometry" />
        </mxCell>
        <mxCell id="KgRT0N7U9_jlhOVH3Q5B-16" value="carnets" style="swimlane;fontStyle=0;childLayout=stackLayout;horizontal=1;startSize=30;horizontalStack=0;resizeParent=1;resizeParentMax=0;resizeLast=0;collapsible=1;marginBottom=0;whiteSpace=wrap;html=1;" parent="1" vertex="1">
          <mxGeometry x="1350" y="10" width="140" height="180" as="geometry" />
        </mxCell>
        <mxCell id="KgRT0N7U9_jlhOVH3Q5B-17" value="&lt;b&gt;&lt;u&gt;id_carnet&lt;/u&gt;&lt;/b&gt;" style="text;strokeColor=none;fillColor=none;align=left;verticalAlign=middle;spacingLeft=4;spacingRight=4;overflow=hidden;points=[[0,0.5],[1,0.5]];portConstraint=eastwest;rotatable=0;whiteSpace=wrap;html=1;" parent="KgRT0N7U9_jlhOVH3Q5B-16" vertex="1">
          <mxGeometry y="30" width="140" height="30" as="geometry" />
        </mxCell>
        <mxCell id="KgRT0N7U9_jlhOVH3Q5B-18" value="tipo_estado_id" style="text;strokeColor=none;fillColor=none;align=left;verticalAlign=middle;spacingLeft=4;spacingRight=4;overflow=hidden;points=[[0,0.5],[1,0.5]];portConstraint=eastwest;rotatable=0;whiteSpace=wrap;html=1;" parent="KgRT0N7U9_jlhOVH3Q5B-16" vertex="1">
          <mxGeometry y="60" width="140" height="30" as="geometry" />
        </mxCell>
        <mxCell id="KgRT0N7U9_jlhOVH3Q5B-19" value="codigo" style="text;strokeColor=none;fillColor=none;align=left;verticalAlign=middle;spacingLeft=4;spacingRight=4;overflow=hidden;points=[[0,0.5],[1,0.5]];portConstraint=eastwest;rotatable=0;whiteSpace=wrap;html=1;" parent="KgRT0N7U9_jlhOVH3Q5B-16" vertex="1">
          <mxGeometry y="90" width="140" height="30" as="geometry" />
        </mxCell>
        <mxCell id="KgRT0N7U9_jlhOVH3Q5B-20" value="fecha_emision" style="text;strokeColor=none;fillColor=none;align=left;verticalAlign=middle;spacingLeft=4;spacingRight=4;overflow=hidden;points=[[0,0.5],[1,0.5]];portConstraint=eastwest;rotatable=0;whiteSpace=wrap;html=1;" parent="KgRT0N7U9_jlhOVH3Q5B-16" vertex="1">
          <mxGeometry y="120" width="140" height="30" as="geometry" />
        </mxCell>
        <mxCell id="KgRT0N7U9_jlhOVH3Q5B-26" value="fecha_vencimiento" style="text;strokeColor=none;fillColor=none;align=left;verticalAlign=middle;spacingLeft=4;spacingRight=4;overflow=hidden;points=[[0,0.5],[1,0.5]];portConstraint=eastwest;rotatable=0;whiteSpace=wrap;html=1;" parent="KgRT0N7U9_jlhOVH3Q5B-16" vertex="1">
          <mxGeometry y="150" width="140" height="30" as="geometry" />
        </mxCell>
        <mxCell id="KgRT0N7U9_jlhOVH3Q5B-27" value="tipos_estados" style="swimlane;fontStyle=0;childLayout=stackLayout;horizontal=1;startSize=30;horizontalStack=0;resizeParent=1;resizeParentMax=0;resizeLast=0;collapsible=1;marginBottom=0;whiteSpace=wrap;html=1;" parent="1" vertex="1">
          <mxGeometry x="1160" y="200" width="140" height="120" as="geometry" />
        </mxCell>
        <mxCell id="KgRT0N7U9_jlhOVH3Q5B-28" value="&lt;b&gt;&lt;u&gt;id_tipo_estado&lt;/u&gt;&lt;/b&gt;" style="text;strokeColor=none;fillColor=none;align=left;verticalAlign=middle;spacingLeft=4;spacingRight=4;overflow=hidden;points=[[0,0.5],[1,0.5]];portConstraint=eastwest;rotatable=0;whiteSpace=wrap;html=1;" parent="KgRT0N7U9_jlhOVH3Q5B-27" vertex="1">
          <mxGeometry y="30" width="140" height="30" as="geometry" />
        </mxCell>
        <mxCell id="KgRT0N7U9_jlhOVH3Q5B-29" value="tipo_estado" style="text;strokeColor=none;fillColor=none;align=left;verticalAlign=middle;spacingLeft=4;spacingRight=4;overflow=hidden;points=[[0,0.5],[1,0.5]];portConstraint=eastwest;rotatable=0;whiteSpace=wrap;html=1;" parent="KgRT0N7U9_jlhOVH3Q5B-27" vertex="1">
          <mxGeometry y="60" width="140" height="30" as="geometry" />
        </mxCell>
        <mxCell id="KgRT0N7U9_jlhOVH3Q5B-30" value="activo" style="text;strokeColor=none;fillColor=none;align=left;verticalAlign=middle;spacingLeft=4;spacingRight=4;overflow=hidden;points=[[0,0.5],[1,0.5]];portConstraint=eastwest;rotatable=0;whiteSpace=wrap;html=1;" parent="KgRT0N7U9_jlhOVH3Q5B-27" vertex="1">
          <mxGeometry y="90" width="140" height="30" as="geometry" />
        </mxCell>
        <mxCell id="KgRT0N7U9_jlhOVH3Q5B-31" value="tipos_documentos" style="swimlane;fontStyle=0;childLayout=stackLayout;horizontal=1;startSize=30;horizontalStack=0;resizeParent=1;resizeParentMax=0;resizeLast=0;collapsible=1;marginBottom=0;whiteSpace=wrap;html=1;" parent="1" vertex="1">
          <mxGeometry x="1125" y="530" width="140" height="90" as="geometry" />
        </mxCell>
        <mxCell id="KgRT0N7U9_jlhOVH3Q5B-32" value="&lt;b&gt;&lt;u&gt;id_tipo_documento&lt;/u&gt;&lt;/b&gt;" style="text;strokeColor=none;fillColor=none;align=left;verticalAlign=middle;spacingLeft=4;spacingRight=4;overflow=hidden;points=[[0,0.5],[1,0.5]];portConstraint=eastwest;rotatable=0;whiteSpace=wrap;html=1;" parent="KgRT0N7U9_jlhOVH3Q5B-31" vertex="1">
          <mxGeometry y="30" width="140" height="30" as="geometry" />
        </mxCell>
        <mxCell id="KgRT0N7U9_jlhOVH3Q5B-33" value="tipo_documento" style="text;strokeColor=none;fillColor=none;align=left;verticalAlign=middle;spacingLeft=4;spacingRight=4;overflow=hidden;points=[[0,0.5],[1,0.5]];portConstraint=eastwest;rotatable=0;whiteSpace=wrap;html=1;" parent="KgRT0N7U9_jlhOVH3Q5B-31" vertex="1">
          <mxGeometry y="60" width="140" height="30" as="geometry" />
        </mxCell>
        <mxCell id="KgRT0N7U9_jlhOVH3Q5B-35" value="roles_usuarios" style="swimlane;fontStyle=0;childLayout=stackLayout;horizontal=1;startSize=30;horizontalStack=0;resizeParent=1;resizeParentMax=0;resizeLast=0;collapsible=1;marginBottom=0;whiteSpace=wrap;html=1;" parent="1" vertex="1">
          <mxGeometry x="680" y="530" width="140" height="90" as="geometry" />
        </mxCell>
        <mxCell id="KgRT0N7U9_jlhOVH3Q5B-36" value="&lt;b&gt;&lt;u&gt;id_rol_usuario&lt;/u&gt;&lt;/b&gt;" style="text;strokeColor=none;fillColor=none;align=left;verticalAlign=middle;spacingLeft=4;spacingRight=4;overflow=hidden;points=[[0,0.5],[1,0.5]];portConstraint=eastwest;rotatable=0;whiteSpace=wrap;html=1;" parent="KgRT0N7U9_jlhOVH3Q5B-35" vertex="1">
          <mxGeometry y="30" width="140" height="30" as="geometry" />
        </mxCell>
        <mxCell id="KgRT0N7U9_jlhOVH3Q5B-37" value="rol_usuario" style="text;strokeColor=none;fillColor=none;align=left;verticalAlign=middle;spacingLeft=4;spacingRight=4;overflow=hidden;points=[[0,0.5],[1,0.5]];portConstraint=eastwest;rotatable=0;whiteSpace=wrap;html=1;" parent="KgRT0N7U9_jlhOVH3Q5B-35" vertex="1">
          <mxGeometry y="60" width="140" height="30" as="geometry" />
        </mxCell>
        <mxCell id="KgRT0N7U9_jlhOVH3Q5B-38" value="registros_accesos_usuarios" style="swimlane;fontStyle=0;childLayout=stackLayout;horizontal=1;startSize=30;horizontalStack=0;resizeParent=1;resizeParentMax=0;resizeLast=0;collapsible=1;marginBottom=0;whiteSpace=wrap;html=1;" parent="1" vertex="1">
          <mxGeometry x="1460" y="740" width="170" height="150" as="geometry" />
        </mxCell>
        <mxCell id="KgRT0N7U9_jlhOVH3Q5B-39" value="&lt;b&gt;&lt;u&gt;id_registro_acceso&lt;/u&gt;&lt;/b&gt;" style="text;strokeColor=none;fillColor=none;align=left;verticalAlign=middle;spacingLeft=4;spacingRight=4;overflow=hidden;points=[[0,0.5],[1,0.5]];portConstraint=eastwest;rotatable=0;whiteSpace=wrap;html=1;" parent="KgRT0N7U9_jlhOVH3Q5B-38" vertex="1">
          <mxGeometry y="30" width="170" height="30" as="geometry" />
        </mxCell>
        <mxCell id="KgRT0N7U9_jlhOVH3Q5B-40" value="usuario_id" style="text;strokeColor=none;fillColor=none;align=left;verticalAlign=middle;spacingLeft=4;spacingRight=4;overflow=hidden;points=[[0,0.5],[1,0.5]];portConstraint=eastwest;rotatable=0;whiteSpace=wrap;html=1;" parent="KgRT0N7U9_jlhOVH3Q5B-38" vertex="1">
          <mxGeometry y="60" width="170" height="30" as="geometry" />
        </mxCell>
        <mxCell id="KgRT0N7U9_jlhOVH3Q5B-41" value="fecha_ingreso" style="text;strokeColor=none;fillColor=none;align=left;verticalAlign=middle;spacingLeft=4;spacingRight=4;overflow=hidden;points=[[0,0.5],[1,0.5]];portConstraint=eastwest;rotatable=0;whiteSpace=wrap;html=1;" parent="KgRT0N7U9_jlhOVH3Q5B-38" vertex="1">
          <mxGeometry y="90" width="170" height="30" as="geometry" />
        </mxCell>
        <mxCell id="KgRT0N7U9_jlhOVH3Q5B-42" value="direccion_ip" style="text;strokeColor=none;fillColor=none;align=left;verticalAlign=middle;spacingLeft=4;spacingRight=4;overflow=hidden;points=[[0,0.5],[1,0.5]];portConstraint=eastwest;rotatable=0;whiteSpace=wrap;html=1;" parent="KgRT0N7U9_jlhOVH3Q5B-38" vertex="1">
          <mxGeometry y="120" width="170" height="30" as="geometry" />
        </mxCell>
        <mxCell id="KgRT0N7U9_jlhOVH3Q5B-47" value="niveles_educativos" style="swimlane;fontStyle=0;childLayout=stackLayout;horizontal=1;startSize=30;horizontalStack=0;resizeParent=1;resizeParentMax=0;resizeLast=0;collapsible=1;marginBottom=0;whiteSpace=wrap;html=1;" parent="1" vertex="1">
          <mxGeometry x="1490" y="350" width="140" height="90" as="geometry" />
        </mxCell>
        <mxCell id="KgRT0N7U9_jlhOVH3Q5B-48" value="&lt;b&gt;&lt;u&gt;id_nivel_educativo&lt;/u&gt;&lt;/b&gt;" style="text;strokeColor=none;fillColor=none;align=left;verticalAlign=middle;spacingLeft=4;spacingRight=4;overflow=hidden;points=[[0,0.5],[1,0.5]];portConstraint=eastwest;rotatable=0;whiteSpace=wrap;html=1;" parent="KgRT0N7U9_jlhOVH3Q5B-47" vertex="1">
          <mxGeometry y="30" width="140" height="30" as="geometry" />
        </mxCell>
        <mxCell id="KgRT0N7U9_jlhOVH3Q5B-49" value="nivel_educativo" style="text;strokeColor=none;fillColor=none;align=left;verticalAlign=middle;spacingLeft=4;spacingRight=4;overflow=hidden;points=[[0,0.5],[1,0.5]];portConstraint=eastwest;rotatable=0;whiteSpace=wrap;html=1;" parent="KgRT0N7U9_jlhOVH3Q5B-47" vertex="1">
          <mxGeometry y="60" width="140" height="30" as="geometry" />
        </mxCell>
        <mxCell id="KgRT0N7U9_jlhOVH3Q5B-50" value="generos" style="swimlane;fontStyle=0;childLayout=stackLayout;horizontal=1;startSize=30;horizontalStack=0;resizeParent=1;resizeParentMax=0;resizeLast=0;collapsible=1;marginBottom=0;whiteSpace=wrap;html=1;" parent="1" vertex="1">
          <mxGeometry x="1490" y="505" width="140" height="90" as="geometry" />
        </mxCell>
        <mxCell id="KgRT0N7U9_jlhOVH3Q5B-51" value="&lt;b&gt;&lt;u&gt;id_genero&lt;/u&gt;&lt;/b&gt;" style="text;strokeColor=none;fillColor=none;align=left;verticalAlign=middle;spacingLeft=4;spacingRight=4;overflow=hidden;points=[[0,0.5],[1,0.5]];portConstraint=eastwest;rotatable=0;whiteSpace=wrap;html=1;" parent="KgRT0N7U9_jlhOVH3Q5B-50" vertex="1">
          <mxGeometry y="30" width="140" height="30" as="geometry" />
        </mxCell>
        <mxCell id="KgRT0N7U9_jlhOVH3Q5B-52" value="genero" style="text;strokeColor=none;fillColor=none;align=left;verticalAlign=middle;spacingLeft=4;spacingRight=4;overflow=hidden;points=[[0,0.5],[1,0.5]];portConstraint=eastwest;rotatable=0;whiteSpace=wrap;html=1;" parent="KgRT0N7U9_jlhOVH3Q5B-50" vertex="1">
          <mxGeometry y="60" width="140" height="30" as="geometry" />
        </mxCell>
        <mxCell id="KgRT0N7U9_jlhOVH3Q5B-53" value="usuarios" style="swimlane;fontStyle=0;childLayout=stackLayout;horizontal=1;startSize=30;horizontalStack=0;resizeParent=1;resizeParentMax=0;resizeLast=0;collapsible=1;marginBottom=0;whiteSpace=wrap;html=1;" parent="1" vertex="1">
          <mxGeometry x="880" y="530" width="170" height="210" as="geometry" />
        </mxCell>
        <mxCell id="KgRT0N7U9_jlhOVH3Q5B-54" value="&lt;b&gt;&lt;u&gt;id_usuario&lt;/u&gt;&lt;/b&gt;" style="text;strokeColor=none;fillColor=none;align=left;verticalAlign=middle;spacingLeft=4;spacingRight=4;overflow=hidden;points=[[0,0.5],[1,0.5]];portConstraint=eastwest;rotatable=0;whiteSpace=wrap;html=1;" parent="KgRT0N7U9_jlhOVH3Q5B-53" vertex="1">
          <mxGeometry y="30" width="170" height="30" as="geometry" />
        </mxCell>
        <mxCell id="KgRT0N7U9_jlhOVH3Q5B-55" value="cliente_id" style="text;strokeColor=none;fillColor=none;align=left;verticalAlign=middle;spacingLeft=4;spacingRight=4;overflow=hidden;points=[[0,0.5],[1,0.5]];portConstraint=eastwest;rotatable=0;whiteSpace=wrap;html=1;" parent="KgRT0N7U9_jlhOVH3Q5B-53" vertex="1">
          <mxGeometry y="60" width="170" height="30" as="geometry" />
        </mxCell>
        <mxCell id="KgRT0N7U9_jlhOVH3Q5B-56" value="rol_usuario_id" style="text;strokeColor=none;fillColor=none;align=left;verticalAlign=middle;spacingLeft=4;spacingRight=4;overflow=hidden;points=[[0,0.5],[1,0.5]];portConstraint=eastwest;rotatable=0;whiteSpace=wrap;html=1;" parent="KgRT0N7U9_jlhOVH3Q5B-53" vertex="1">
          <mxGeometry y="90" width="170" height="30" as="geometry" />
        </mxCell>
        <mxCell id="oZ6xDSacDctWAGzNHLq4-4" value="documento" style="text;strokeColor=none;fillColor=none;align=left;verticalAlign=middle;spacingLeft=4;spacingRight=4;overflow=hidden;points=[[0,0.5],[1,0.5]];portConstraint=eastwest;rotatable=0;whiteSpace=wrap;html=1;" vertex="1" parent="KgRT0N7U9_jlhOVH3Q5B-53">
          <mxGeometry y="120" width="170" height="30" as="geometry" />
        </mxCell>
        <mxCell id="oZ6xDSacDctWAGzNHLq4-5" value="tipo_documento_id" style="text;strokeColor=none;fillColor=none;align=left;verticalAlign=middle;spacingLeft=4;spacingRight=4;overflow=hidden;points=[[0,0.5],[1,0.5]];portConstraint=eastwest;rotatable=0;whiteSpace=wrap;html=1;" vertex="1" parent="KgRT0N7U9_jlhOVH3Q5B-53">
          <mxGeometry y="150" width="170" height="30" as="geometry" />
        </mxCell>
        <mxCell id="KgRT0N7U9_jlhOVH3Q5B-57" value="psk" style="text;strokeColor=none;fillColor=none;align=left;verticalAlign=middle;spacingLeft=4;spacingRight=4;overflow=hidden;points=[[0,0.5],[1,0.5]];portConstraint=eastwest;rotatable=0;whiteSpace=wrap;html=1;" parent="KgRT0N7U9_jlhOVH3Q5B-53" vertex="1">
          <mxGeometry y="180" width="170" height="30" as="geometry" />
        </mxCell>
        <mxCell id="KgRT0N7U9_jlhOVH3Q5B-66" value="categorias" style="swimlane;fontStyle=0;childLayout=stackLayout;horizontal=1;startSize=30;horizontalStack=0;resizeParent=1;resizeParentMax=0;resizeLast=0;collapsible=1;marginBottom=0;whiteSpace=wrap;html=1;" parent="1" vertex="1">
          <mxGeometry x="-230" y="510" width="140" height="90" as="geometry" />
        </mxCell>
        <mxCell id="KgRT0N7U9_jlhOVH3Q5B-67" value="&lt;b&gt;&lt;u&gt;id_categoria&lt;/u&gt;&lt;/b&gt;" style="text;strokeColor=none;fillColor=none;align=left;verticalAlign=middle;spacingLeft=4;spacingRight=4;overflow=hidden;points=[[0,0.5],[1,0.5]];portConstraint=eastwest;rotatable=0;whiteSpace=wrap;html=1;" parent="KgRT0N7U9_jlhOVH3Q5B-66" vertex="1">
          <mxGeometry y="30" width="140" height="30" as="geometry" />
        </mxCell>
        <mxCell id="KgRT0N7U9_jlhOVH3Q5B-68" value="categoria" style="text;strokeColor=none;fillColor=none;align=left;verticalAlign=middle;spacingLeft=4;spacingRight=4;overflow=hidden;points=[[0,0.5],[1,0.5]];portConstraint=eastwest;rotatable=0;whiteSpace=wrap;html=1;" parent="KgRT0N7U9_jlhOVH3Q5B-66" vertex="1">
          <mxGeometry y="60" width="140" height="30" as="geometry" />
        </mxCell>
        <mxCell id="KgRT0N7U9_jlhOVH3Q5B-69" value="autores" style="swimlane;fontStyle=0;childLayout=stackLayout;horizontal=1;startSize=30;horizontalStack=0;resizeParent=1;resizeParentMax=0;resizeLast=0;collapsible=1;marginBottom=0;whiteSpace=wrap;html=1;" parent="1" vertex="1">
          <mxGeometry x="-170" y="750" width="140" height="180" as="geometry" />
        </mxCell>
        <mxCell id="KgRT0N7U9_jlhOVH3Q5B-70" value="&lt;b&gt;&lt;u&gt;id_autor&lt;/u&gt;&lt;/b&gt;" style="text;strokeColor=none;fillColor=none;align=left;verticalAlign=middle;spacingLeft=4;spacingRight=4;overflow=hidden;points=[[0,0.5],[1,0.5]];portConstraint=eastwest;rotatable=0;whiteSpace=wrap;html=1;" parent="KgRT0N7U9_jlhOVH3Q5B-69" vertex="1">
          <mxGeometry y="30" width="140" height="30" as="geometry" />
        </mxCell>
        <mxCell id="KgRT0N7U9_jlhOVH3Q5B-71" value="seudonimo" style="text;strokeColor=none;fillColor=none;align=left;verticalAlign=middle;spacingLeft=4;spacingRight=4;overflow=hidden;points=[[0,0.5],[1,0.5]];portConstraint=eastwest;rotatable=0;whiteSpace=wrap;html=1;" parent="KgRT0N7U9_jlhOVH3Q5B-69" vertex="1">
          <mxGeometry y="60" width="140" height="30" as="geometry" />
        </mxCell>
        <mxCell id="KgRT0N7U9_jlhOVH3Q5B-72" value="nombre" style="text;strokeColor=none;fillColor=none;align=left;verticalAlign=middle;spacingLeft=4;spacingRight=4;overflow=hidden;points=[[0,0.5],[1,0.5]];portConstraint=eastwest;rotatable=0;whiteSpace=wrap;html=1;" parent="KgRT0N7U9_jlhOVH3Q5B-69" vertex="1">
          <mxGeometry y="90" width="140" height="30" as="geometry" />
        </mxCell>
        <mxCell id="KgRT0N7U9_jlhOVH3Q5B-73" value="apellido_paterno" style="text;strokeColor=none;fillColor=none;align=left;verticalAlign=middle;spacingLeft=4;spacingRight=4;overflow=hidden;points=[[0,0.5],[1,0.5]];portConstraint=eastwest;rotatable=0;whiteSpace=wrap;html=1;" parent="KgRT0N7U9_jlhOVH3Q5B-69" vertex="1">
          <mxGeometry y="120" width="140" height="30" as="geometry" />
        </mxCell>
        <mxCell id="KgRT0N7U9_jlhOVH3Q5B-74" value="apellido_materno" style="text;strokeColor=none;fillColor=none;align=left;verticalAlign=middle;spacingLeft=4;spacingRight=4;overflow=hidden;points=[[0,0.5],[1,0.5]];portConstraint=eastwest;rotatable=0;whiteSpace=wrap;html=1;" parent="KgRT0N7U9_jlhOVH3Q5B-69" vertex="1">
          <mxGeometry y="150" width="140" height="30" as="geometry" />
        </mxCell>
        <mxCell id="KgRT0N7U9_jlhOVH3Q5B-76" value="direcciones_clientes" style="swimlane;fontStyle=0;childLayout=stackLayout;horizontal=1;startSize=30;horizontalStack=0;resizeParent=1;resizeParentMax=0;resizeLast=0;collapsible=1;marginBottom=0;whiteSpace=wrap;html=1;" parent="1" vertex="1">
          <mxGeometry x="1025" y="980" width="140" height="120" as="geometry" />
        </mxCell>
        <mxCell id="KgRT0N7U9_jlhOVH3Q5B-77" value="&lt;b&gt;&lt;u&gt;id_direccion_cliente&lt;/u&gt;&lt;/b&gt;" style="text;strokeColor=none;fillColor=none;align=left;verticalAlign=middle;spacingLeft=4;spacingRight=4;overflow=hidden;points=[[0,0.5],[1,0.5]];portConstraint=eastwest;rotatable=0;whiteSpace=wrap;html=1;" parent="KgRT0N7U9_jlhOVH3Q5B-76" vertex="1">
          <mxGeometry y="30" width="140" height="30" as="geometry" />
        </mxCell>
        <mxCell id="KgRT0N7U9_jlhOVH3Q5B-78" value="distrito_id" style="text;strokeColor=none;fillColor=none;align=left;verticalAlign=middle;spacingLeft=4;spacingRight=4;overflow=hidden;points=[[0,0.5],[1,0.5]];portConstraint=eastwest;rotatable=0;whiteSpace=wrap;html=1;" parent="KgRT0N7U9_jlhOVH3Q5B-76" vertex="1">
          <mxGeometry y="60" width="140" height="30" as="geometry" />
        </mxCell>
        <mxCell id="KgRT0N7U9_jlhOVH3Q5B-79" value="direccion" style="text;strokeColor=none;fillColor=none;align=left;verticalAlign=middle;spacingLeft=4;spacingRight=4;overflow=hidden;points=[[0,0.5],[1,0.5]];portConstraint=eastwest;rotatable=0;whiteSpace=wrap;html=1;" parent="KgRT0N7U9_jlhOVH3Q5B-76" vertex="1">
          <mxGeometry y="90" width="140" height="30" as="geometry" />
        </mxCell>
        <mxCell id="KgRT0N7U9_jlhOVH3Q5B-81" value="tipos_prestamos" style="swimlane;fontStyle=0;childLayout=stackLayout;horizontal=1;startSize=30;horizontalStack=0;resizeParent=1;resizeParentMax=0;resizeLast=0;collapsible=1;marginBottom=0;whiteSpace=wrap;html=1;" parent="1" vertex="1">
          <mxGeometry x="525" y="420" width="140" height="90" as="geometry" />
        </mxCell>
        <mxCell id="KgRT0N7U9_jlhOVH3Q5B-82" value="&lt;b&gt;&lt;u&gt;id_tipo_prestamo&lt;/u&gt;&lt;/b&gt;" style="text;strokeColor=none;fillColor=none;align=left;verticalAlign=middle;spacingLeft=4;spacingRight=4;overflow=hidden;points=[[0,0.5],[1,0.5]];portConstraint=eastwest;rotatable=0;whiteSpace=wrap;html=1;" parent="KgRT0N7U9_jlhOVH3Q5B-81" vertex="1">
          <mxGeometry y="30" width="140" height="30" as="geometry" />
        </mxCell>
        <mxCell id="KgRT0N7U9_jlhOVH3Q5B-83" value="tipo_prestamo" style="text;strokeColor=none;fillColor=none;align=left;verticalAlign=middle;spacingLeft=4;spacingRight=4;overflow=hidden;points=[[0,0.5],[1,0.5]];portConstraint=eastwest;rotatable=0;whiteSpace=wrap;html=1;" parent="KgRT0N7U9_jlhOVH3Q5B-81" vertex="1">
          <mxGeometry y="60" width="140" height="30" as="geometry" />
        </mxCell>
        <mxCell id="KgRT0N7U9_jlhOVH3Q5B-85" value="estados_prestamos" style="swimlane;fontStyle=0;childLayout=stackLayout;horizontal=1;startSize=30;horizontalStack=0;resizeParent=1;resizeParentMax=0;resizeLast=0;collapsible=1;marginBottom=0;whiteSpace=wrap;html=1;" parent="1" vertex="1">
          <mxGeometry x="344" y="425" width="140" height="90" as="geometry" />
        </mxCell>
        <mxCell id="KgRT0N7U9_jlhOVH3Q5B-86" value="&lt;b&gt;&lt;u&gt;id_estado_prestamo&lt;/u&gt;&lt;/b&gt;" style="text;strokeColor=none;fillColor=none;align=left;verticalAlign=middle;spacingLeft=4;spacingRight=4;overflow=hidden;points=[[0,0.5],[1,0.5]];portConstraint=eastwest;rotatable=0;whiteSpace=wrap;html=1;" parent="KgRT0N7U9_jlhOVH3Q5B-85" vertex="1">
          <mxGeometry y="30" width="140" height="30" as="geometry" />
        </mxCell>
        <mxCell id="KgRT0N7U9_jlhOVH3Q5B-87" value="estado_prestamo" style="text;strokeColor=none;fillColor=none;align=left;verticalAlign=middle;spacingLeft=4;spacingRight=4;overflow=hidden;points=[[0,0.5],[1,0.5]];portConstraint=eastwest;rotatable=0;whiteSpace=wrap;html=1;" parent="KgRT0N7U9_jlhOVH3Q5B-85" vertex="1">
          <mxGeometry y="60" width="140" height="30" as="geometry" />
        </mxCell>
        <mxCell id="KgRT0N7U9_jlhOVH3Q5B-90" value="prestamos" style="swimlane;fontStyle=0;childLayout=stackLayout;horizontal=1;startSize=30;horizontalStack=0;resizeParent=1;resizeParentMax=0;resizeLast=0;collapsible=1;marginBottom=0;whiteSpace=wrap;html=1;" parent="1" vertex="1">
          <mxGeometry x="525" y="30" width="140" height="240" as="geometry" />
        </mxCell>
        <mxCell id="KgRT0N7U9_jlhOVH3Q5B-91" value="&lt;b&gt;&lt;u&gt;id_prestamo&lt;/u&gt;&lt;/b&gt;" style="text;strokeColor=none;fillColor=none;align=left;verticalAlign=middle;spacingLeft=4;spacingRight=4;overflow=hidden;points=[[0,0.5],[1,0.5]];portConstraint=eastwest;rotatable=0;whiteSpace=wrap;html=1;" parent="KgRT0N7U9_jlhOVH3Q5B-90" vertex="1">
          <mxGeometry y="30" width="140" height="30" as="geometry" />
        </mxCell>
        <mxCell id="KgRT0N7U9_jlhOVH3Q5B-92" value="usuario_id" style="text;strokeColor=none;fillColor=none;align=left;verticalAlign=middle;spacingLeft=4;spacingRight=4;overflow=hidden;points=[[0,0.5],[1,0.5]];portConstraint=eastwest;rotatable=0;whiteSpace=wrap;html=1;" parent="KgRT0N7U9_jlhOVH3Q5B-90" vertex="1">
          <mxGeometry y="60" width="140" height="30" as="geometry" />
        </mxCell>
        <mxCell id="KgRT0N7U9_jlhOVH3Q5B-93" value="recurso_textual_id" style="text;strokeColor=none;fillColor=none;align=left;verticalAlign=middle;spacingLeft=4;spacingRight=4;overflow=hidden;points=[[0,0.5],[1,0.5]];portConstraint=eastwest;rotatable=0;whiteSpace=wrap;html=1;" parent="KgRT0N7U9_jlhOVH3Q5B-90" vertex="1">
          <mxGeometry y="90" width="140" height="30" as="geometry" />
        </mxCell>
        <mxCell id="KgRT0N7U9_jlhOVH3Q5B-94" value="tipo_prestamo_id" style="text;strokeColor=none;fillColor=none;align=left;verticalAlign=middle;spacingLeft=4;spacingRight=4;overflow=hidden;points=[[0,0.5],[1,0.5]];portConstraint=eastwest;rotatable=0;whiteSpace=wrap;html=1;" parent="KgRT0N7U9_jlhOVH3Q5B-90" vertex="1">
          <mxGeometry y="120" width="140" height="30" as="geometry" />
        </mxCell>
        <mxCell id="KgRT0N7U9_jlhOVH3Q5B-100" value="fecha_incial" style="text;strokeColor=none;fillColor=none;align=left;verticalAlign=middle;spacingLeft=4;spacingRight=4;overflow=hidden;points=[[0,0.5],[1,0.5]];portConstraint=eastwest;rotatable=0;whiteSpace=wrap;html=1;" parent="KgRT0N7U9_jlhOVH3Q5B-90" vertex="1">
          <mxGeometry y="150" width="140" height="30" as="geometry" />
        </mxCell>
        <mxCell id="KgRT0N7U9_jlhOVH3Q5B-101" value="fecha_final" style="text;strokeColor=none;fillColor=none;align=left;verticalAlign=middle;spacingLeft=4;spacingRight=4;overflow=hidden;points=[[0,0.5],[1,0.5]];portConstraint=eastwest;rotatable=0;whiteSpace=wrap;html=1;" parent="KgRT0N7U9_jlhOVH3Q5B-90" vertex="1">
          <mxGeometry y="180" width="140" height="30" as="geometry" />
        </mxCell>
        <mxCell id="KgRT0N7U9_jlhOVH3Q5B-102" value="fecha_programada" style="text;strokeColor=none;fillColor=none;align=left;verticalAlign=middle;spacingLeft=4;spacingRight=4;overflow=hidden;points=[[0,0.5],[1,0.5]];portConstraint=eastwest;rotatable=0;whiteSpace=wrap;html=1;" parent="KgRT0N7U9_jlhOVH3Q5B-90" vertex="1">
          <mxGeometry y="210" width="140" height="30" as="geometry" />
        </mxCell>
        <mxCell id="KgRT0N7U9_jlhOVH3Q5B-103" value="tipos_textos" style="swimlane;fontStyle=0;childLayout=stackLayout;horizontal=1;startSize=30;horizontalStack=0;resizeParent=1;resizeParentMax=0;resizeLast=0;collapsible=1;marginBottom=0;whiteSpace=wrap;html=1;" parent="1" vertex="1">
          <mxGeometry x="-200" y="30" width="140" height="90" as="geometry" />
        </mxCell>
        <mxCell id="KgRT0N7U9_jlhOVH3Q5B-104" value="&lt;b&gt;&lt;u&gt;id_tipo_texto&lt;/u&gt;&lt;/b&gt;" style="text;strokeColor=none;fillColor=none;align=left;verticalAlign=middle;spacingLeft=4;spacingRight=4;overflow=hidden;points=[[0,0.5],[1,0.5]];portConstraint=eastwest;rotatable=0;whiteSpace=wrap;html=1;" parent="KgRT0N7U9_jlhOVH3Q5B-103" vertex="1">
          <mxGeometry y="30" width="140" height="30" as="geometry" />
        </mxCell>
        <mxCell id="KgRT0N7U9_jlhOVH3Q5B-105" value="tipo_texto" style="text;strokeColor=none;fillColor=none;align=left;verticalAlign=middle;spacingLeft=4;spacingRight=4;overflow=hidden;points=[[0,0.5],[1,0.5]];portConstraint=eastwest;rotatable=0;whiteSpace=wrap;html=1;" parent="KgRT0N7U9_jlhOVH3Q5B-103" vertex="1">
          <mxGeometry y="60" width="140" height="30" as="geometry" />
        </mxCell>
        <mxCell id="KgRT0N7U9_jlhOVH3Q5B-107" value="categorias_recursos_textuales" style="swimlane;fontStyle=0;childLayout=stackLayout;horizontal=1;startSize=30;horizontalStack=0;resizeParent=1;resizeParentMax=0;resizeLast=0;collapsible=1;marginBottom=0;whiteSpace=wrap;html=1;" parent="1" vertex="1">
          <mxGeometry x="110" y="510" width="190" height="90" as="geometry" />
        </mxCell>
        <mxCell id="KgRT0N7U9_jlhOVH3Q5B-108" value="recurso_textual_id" style="text;strokeColor=none;fillColor=none;align=left;verticalAlign=middle;spacingLeft=4;spacingRight=4;overflow=hidden;points=[[0,0.5],[1,0.5]];portConstraint=eastwest;rotatable=0;whiteSpace=wrap;html=1;" parent="KgRT0N7U9_jlhOVH3Q5B-107" vertex="1">
          <mxGeometry y="30" width="190" height="30" as="geometry" />
        </mxCell>
        <mxCell id="KgRT0N7U9_jlhOVH3Q5B-109" value="categoria_id" style="text;strokeColor=none;fillColor=none;align=left;verticalAlign=middle;spacingLeft=4;spacingRight=4;overflow=hidden;points=[[0,0.5],[1,0.5]];portConstraint=eastwest;rotatable=0;whiteSpace=wrap;html=1;" parent="KgRT0N7U9_jlhOVH3Q5B-107" vertex="1">
          <mxGeometry y="60" width="190" height="30" as="geometry" />
        </mxCell>
        <mxCell id="KgRT0N7U9_jlhOVH3Q5B-111" value="recursos_textuales_autores" style="swimlane;fontStyle=0;childLayout=stackLayout;horizontal=1;startSize=30;horizontalStack=0;resizeParent=1;resizeParentMax=0;resizeLast=0;collapsible=1;marginBottom=0;whiteSpace=wrap;html=1;" parent="1" vertex="1">
          <mxGeometry x="235" y="790" width="170" height="90" as="geometry" />
        </mxCell>
        <mxCell id="KgRT0N7U9_jlhOVH3Q5B-112" value="recursos_textual_id" style="text;strokeColor=none;fillColor=none;align=left;verticalAlign=middle;spacingLeft=4;spacingRight=4;overflow=hidden;points=[[0,0.5],[1,0.5]];portConstraint=eastwest;rotatable=0;whiteSpace=wrap;html=1;" parent="KgRT0N7U9_jlhOVH3Q5B-111" vertex="1">
          <mxGeometry y="30" width="170" height="30" as="geometry" />
        </mxCell>
        <mxCell id="KgRT0N7U9_jlhOVH3Q5B-113" value="autor_id" style="text;strokeColor=none;fillColor=none;align=left;verticalAlign=middle;spacingLeft=4;spacingRight=4;overflow=hidden;points=[[0,0.5],[1,0.5]];portConstraint=eastwest;rotatable=0;whiteSpace=wrap;html=1;" parent="KgRT0N7U9_jlhOVH3Q5B-111" vertex="1">
          <mxGeometry y="60" width="170" height="30" as="geometry" />
        </mxCell>
        <mxCell id="KgRT0N7U9_jlhOVH3Q5B-115" value="recursos_textuales" style="swimlane;fontStyle=0;childLayout=stackLayout;horizontal=1;startSize=30;horizontalStack=0;resizeParent=1;resizeParentMax=0;resizeLast=0;collapsible=1;marginBottom=0;whiteSpace=wrap;html=1;" parent="1" vertex="1">
          <mxGeometry x="140" y="30" width="140" height="330" as="geometry" />
        </mxCell>
        <mxCell id="KgRT0N7U9_jlhOVH3Q5B-116" value="&lt;b&gt;&lt;u&gt;id_recurso_textual&lt;/u&gt;&lt;/b&gt;" style="text;strokeColor=none;fillColor=none;align=left;verticalAlign=middle;spacingLeft=4;spacingRight=4;overflow=hidden;points=[[0,0.5],[1,0.5]];portConstraint=eastwest;rotatable=0;whiteSpace=wrap;html=1;" parent="KgRT0N7U9_jlhOVH3Q5B-115" vertex="1">
          <mxGeometry y="30" width="140" height="30" as="geometry" />
        </mxCell>
        <mxCell id="KgRT0N7U9_jlhOVH3Q5B-117" value="titulo" style="text;strokeColor=none;fillColor=none;align=left;verticalAlign=middle;spacingLeft=4;spacingRight=4;overflow=hidden;points=[[0,0.5],[1,0.5]];portConstraint=eastwest;rotatable=0;whiteSpace=wrap;html=1;" parent="KgRT0N7U9_jlhOVH3Q5B-115" vertex="1">
          <mxGeometry y="60" width="140" height="30" as="geometry" />
        </mxCell>
        <mxCell id="KgRT0N7U9_jlhOVH3Q5B-118" value="fecha_publicacion" style="text;strokeColor=none;fillColor=none;align=left;verticalAlign=middle;spacingLeft=4;spacingRight=4;overflow=hidden;points=[[0,0.5],[1,0.5]];portConstraint=eastwest;rotatable=0;whiteSpace=wrap;html=1;" parent="KgRT0N7U9_jlhOVH3Q5B-115" vertex="1">
          <mxGeometry y="90" width="140" height="30" as="geometry" />
        </mxCell>
        <mxCell id="KgRT0N7U9_jlhOVH3Q5B-119" value="stock" style="text;strokeColor=none;fillColor=none;align=left;verticalAlign=middle;spacingLeft=4;spacingRight=4;overflow=hidden;points=[[0,0.5],[1,0.5]];portConstraint=eastwest;rotatable=0;whiteSpace=wrap;html=1;" parent="KgRT0N7U9_jlhOVH3Q5B-115" vertex="1">
          <mxGeometry y="120" width="140" height="30" as="geometry" />
        </mxCell>
        <mxCell id="KgRT0N7U9_jlhOVH3Q5B-120" value="numero_paginas" style="text;strokeColor=none;fillColor=none;align=left;verticalAlign=middle;spacingLeft=4;spacingRight=4;overflow=hidden;points=[[0,0.5],[1,0.5]];portConstraint=eastwest;rotatable=0;whiteSpace=wrap;html=1;" parent="KgRT0N7U9_jlhOVH3Q5B-115" vertex="1">
          <mxGeometry y="150" width="140" height="30" as="geometry" />
        </mxCell>
        <mxCell id="KgRT0N7U9_jlhOVH3Q5B-121" value="edicion" style="text;strokeColor=none;fillColor=none;align=left;verticalAlign=middle;spacingLeft=4;spacingRight=4;overflow=hidden;points=[[0,0.5],[1,0.5]];portConstraint=eastwest;rotatable=0;whiteSpace=wrap;html=1;" parent="KgRT0N7U9_jlhOVH3Q5B-115" vertex="1">
          <mxGeometry y="180" width="140" height="30" as="geometry" />
        </mxCell>
        <mxCell id="KgRT0N7U9_jlhOVH3Q5B-122" value="volumen" style="text;strokeColor=none;fillColor=none;align=left;verticalAlign=middle;spacingLeft=4;spacingRight=4;overflow=hidden;points=[[0,0.5],[1,0.5]];portConstraint=eastwest;rotatable=0;whiteSpace=wrap;html=1;" parent="KgRT0N7U9_jlhOVH3Q5B-115" vertex="1">
          <mxGeometry y="210" width="140" height="30" as="geometry" />
        </mxCell>
        <mxCell id="KgRT0N7U9_jlhOVH3Q5B-123" value="codigo" style="text;strokeColor=none;fillColor=none;align=left;verticalAlign=middle;spacingLeft=4;spacingRight=4;overflow=hidden;points=[[0,0.5],[1,0.5]];portConstraint=eastwest;rotatable=0;whiteSpace=wrap;html=1;" parent="KgRT0N7U9_jlhOVH3Q5B-115" vertex="1">
          <mxGeometry y="240" width="140" height="30" as="geometry" />
        </mxCell>
        <mxCell id="KgRT0N7U9_jlhOVH3Q5B-124" value="tipo_texto_id" style="text;strokeColor=none;fillColor=none;align=left;verticalAlign=middle;spacingLeft=4;spacingRight=4;overflow=hidden;points=[[0,0.5],[1,0.5]];portConstraint=eastwest;rotatable=0;whiteSpace=wrap;html=1;" parent="KgRT0N7U9_jlhOVH3Q5B-115" vertex="1">
          <mxGeometry y="270" width="140" height="30" as="geometry" />
        </mxCell>
        <mxCell id="KgRT0N7U9_jlhOVH3Q5B-125" value="editorial_id" style="text;strokeColor=none;fillColor=none;align=left;verticalAlign=middle;spacingLeft=4;spacingRight=4;overflow=hidden;points=[[0,0.5],[1,0.5]];portConstraint=eastwest;rotatable=0;whiteSpace=wrap;html=1;" parent="KgRT0N7U9_jlhOVH3Q5B-115" vertex="1">
          <mxGeometry y="300" width="140" height="30" as="geometry" />
        </mxCell>
        <mxCell id="KgRT0N7U9_jlhOVH3Q5B-126" value="editoriales" style="swimlane;fontStyle=0;childLayout=stackLayout;horizontal=1;startSize=30;horizontalStack=0;resizeParent=1;resizeParentMax=0;resizeLast=0;collapsible=1;marginBottom=0;whiteSpace=wrap;html=1;" parent="1" vertex="1">
          <mxGeometry x="-200" y="240" width="140" height="90" as="geometry" />
        </mxCell>
        <mxCell id="KgRT0N7U9_jlhOVH3Q5B-127" value="&lt;b&gt;&lt;u&gt;id_editorial&lt;/u&gt;&lt;/b&gt;" style="text;strokeColor=none;fillColor=none;align=left;verticalAlign=middle;spacingLeft=4;spacingRight=4;overflow=hidden;points=[[0,0.5],[1,0.5]];portConstraint=eastwest;rotatable=0;whiteSpace=wrap;html=1;" parent="KgRT0N7U9_jlhOVH3Q5B-126" vertex="1">
          <mxGeometry y="30" width="140" height="30" as="geometry" />
        </mxCell>
        <mxCell id="KgRT0N7U9_jlhOVH3Q5B-128" value="editorial" style="text;strokeColor=none;fillColor=none;align=left;verticalAlign=middle;spacingLeft=4;spacingRight=4;overflow=hidden;points=[[0,0.5],[1,0.5]];portConstraint=eastwest;rotatable=0;whiteSpace=wrap;html=1;" parent="KgRT0N7U9_jlhOVH3Q5B-126" vertex="1">
          <mxGeometry y="60" width="140" height="30" as="geometry" />
        </mxCell>
        <mxCell id="KgRT0N7U9_jlhOVH3Q5B-130" value="paises" style="swimlane;fontStyle=0;childLayout=stackLayout;horizontal=1;startSize=30;horizontalStack=0;resizeParent=1;resizeParentMax=0;resizeLast=0;collapsible=1;marginBottom=0;whiteSpace=wrap;html=1;" parent="1" vertex="1">
          <mxGeometry x="-368" y="760" width="140" height="90" as="geometry" />
        </mxCell>
        <mxCell id="KgRT0N7U9_jlhOVH3Q5B-131" value="&lt;b&gt;&lt;u&gt;id_pais&lt;/u&gt;&lt;/b&gt;" style="text;strokeColor=none;fillColor=none;align=left;verticalAlign=middle;spacingLeft=4;spacingRight=4;overflow=hidden;points=[[0,0.5],[1,0.5]];portConstraint=eastwest;rotatable=0;whiteSpace=wrap;html=1;" parent="KgRT0N7U9_jlhOVH3Q5B-130" vertex="1">
          <mxGeometry y="30" width="140" height="30" as="geometry" />
        </mxCell>
        <mxCell id="KgRT0N7U9_jlhOVH3Q5B-132" value="pais" style="text;strokeColor=none;fillColor=none;align=left;verticalAlign=middle;spacingLeft=4;spacingRight=4;overflow=hidden;points=[[0,0.5],[1,0.5]];portConstraint=eastwest;rotatable=0;whiteSpace=wrap;html=1;" parent="KgRT0N7U9_jlhOVH3Q5B-130" vertex="1">
          <mxGeometry y="60" width="140" height="30" as="geometry" />
        </mxCell>
        <mxCell id="KgRT0N7U9_jlhOVH3Q5B-134" value="regiones" style="swimlane;fontStyle=0;childLayout=stackLayout;horizontal=1;startSize=30;horizontalStack=0;resizeParent=1;resizeParentMax=0;resizeLast=0;collapsible=1;marginBottom=0;whiteSpace=wrap;html=1;" parent="1" vertex="1">
          <mxGeometry x="-180" y="980" width="140" height="120" as="geometry" />
        </mxCell>
        <mxCell id="KgRT0N7U9_jlhOVH3Q5B-135" value="&lt;b&gt;&lt;u&gt;id_region&lt;/u&gt;&lt;/b&gt;" style="text;strokeColor=none;fillColor=none;align=left;verticalAlign=middle;spacingLeft=4;spacingRight=4;overflow=hidden;points=[[0,0.5],[1,0.5]];portConstraint=eastwest;rotatable=0;whiteSpace=wrap;html=1;" parent="KgRT0N7U9_jlhOVH3Q5B-134" vertex="1">
          <mxGeometry y="30" width="140" height="30" as="geometry" />
        </mxCell>
        <mxCell id="KgRT0N7U9_jlhOVH3Q5B-136" value="pais_id" style="text;strokeColor=none;fillColor=none;align=left;verticalAlign=middle;spacingLeft=4;spacingRight=4;overflow=hidden;points=[[0,0.5],[1,0.5]];portConstraint=eastwest;rotatable=0;whiteSpace=wrap;html=1;" parent="KgRT0N7U9_jlhOVH3Q5B-134" vertex="1">
          <mxGeometry y="60" width="140" height="30" as="geometry" />
        </mxCell>
        <mxCell id="KgRT0N7U9_jlhOVH3Q5B-137" value="region" style="text;strokeColor=none;fillColor=none;align=left;verticalAlign=middle;spacingLeft=4;spacingRight=4;overflow=hidden;points=[[0,0.5],[1,0.5]];portConstraint=eastwest;rotatable=0;whiteSpace=wrap;html=1;" parent="KgRT0N7U9_jlhOVH3Q5B-134" vertex="1">
          <mxGeometry y="90" width="140" height="30" as="geometry" />
        </mxCell>
        <mxCell id="KgRT0N7U9_jlhOVH3Q5B-138" value="provincias" style="swimlane;fontStyle=0;childLayout=stackLayout;horizontal=1;startSize=30;horizontalStack=0;resizeParent=1;resizeParentMax=0;resizeLast=0;collapsible=1;marginBottom=0;whiteSpace=wrap;html=1;" parent="1" vertex="1">
          <mxGeometry x="219" y="980" width="140" height="120" as="geometry" />
        </mxCell>
        <mxCell id="KgRT0N7U9_jlhOVH3Q5B-139" value="&lt;b&gt;&lt;u&gt;id_provincia&lt;/u&gt;&lt;/b&gt;" style="text;strokeColor=none;fillColor=none;align=left;verticalAlign=middle;spacingLeft=4;spacingRight=4;overflow=hidden;points=[[0,0.5],[1,0.5]];portConstraint=eastwest;rotatable=0;whiteSpace=wrap;html=1;" parent="KgRT0N7U9_jlhOVH3Q5B-138" vertex="1">
          <mxGeometry y="30" width="140" height="30" as="geometry" />
        </mxCell>
        <mxCell id="KgRT0N7U9_jlhOVH3Q5B-140" value="region_id" style="text;strokeColor=none;fillColor=none;align=left;verticalAlign=middle;spacingLeft=4;spacingRight=4;overflow=hidden;points=[[0,0.5],[1,0.5]];portConstraint=eastwest;rotatable=0;whiteSpace=wrap;html=1;" parent="KgRT0N7U9_jlhOVH3Q5B-138" vertex="1">
          <mxGeometry y="60" width="140" height="30" as="geometry" />
        </mxCell>
        <mxCell id="KgRT0N7U9_jlhOVH3Q5B-141" value="provincia" style="text;strokeColor=none;fillColor=none;align=left;verticalAlign=middle;spacingLeft=4;spacingRight=4;overflow=hidden;points=[[0,0.5],[1,0.5]];portConstraint=eastwest;rotatable=0;whiteSpace=wrap;html=1;" parent="KgRT0N7U9_jlhOVH3Q5B-138" vertex="1">
          <mxGeometry y="90" width="140" height="30" as="geometry" />
        </mxCell>
        <mxCell id="KgRT0N7U9_jlhOVH3Q5B-142" value="distritos" style="swimlane;fontStyle=0;childLayout=stackLayout;horizontal=1;startSize=30;horizontalStack=0;resizeParent=1;resizeParentMax=0;resizeLast=0;collapsible=1;marginBottom=0;whiteSpace=wrap;html=1;" parent="1" vertex="1">
          <mxGeometry x="620" y="980" width="140" height="120" as="geometry" />
        </mxCell>
        <mxCell id="KgRT0N7U9_jlhOVH3Q5B-143" value="&lt;b&gt;&lt;u&gt;id_distrito&lt;/u&gt;&lt;/b&gt;" style="text;strokeColor=none;fillColor=none;align=left;verticalAlign=middle;spacingLeft=4;spacingRight=4;overflow=hidden;points=[[0,0.5],[1,0.5]];portConstraint=eastwest;rotatable=0;whiteSpace=wrap;html=1;" parent="KgRT0N7U9_jlhOVH3Q5B-142" vertex="1">
          <mxGeometry y="30" width="140" height="30" as="geometry" />
        </mxCell>
        <mxCell id="KgRT0N7U9_jlhOVH3Q5B-144" value="provincia_id" style="text;strokeColor=none;fillColor=none;align=left;verticalAlign=middle;spacingLeft=4;spacingRight=4;overflow=hidden;points=[[0,0.5],[1,0.5]];portConstraint=eastwest;rotatable=0;whiteSpace=wrap;html=1;" parent="KgRT0N7U9_jlhOVH3Q5B-142" vertex="1">
          <mxGeometry y="60" width="140" height="30" as="geometry" />
        </mxCell>
        <mxCell id="KgRT0N7U9_jlhOVH3Q5B-145" value="distrito" style="text;strokeColor=none;fillColor=none;align=left;verticalAlign=middle;spacingLeft=4;spacingRight=4;overflow=hidden;points=[[0,0.5],[1,0.5]];portConstraint=eastwest;rotatable=0;whiteSpace=wrap;html=1;" parent="KgRT0N7U9_jlhOVH3Q5B-142" vertex="1">
          <mxGeometry y="90" width="140" height="30" as="geometry" />
        </mxCell>
        <mxCell id="KgRT0N7U9_jlhOVH3Q5B-146" value="Asociado a" style="shape=rhombus;perimeter=rhombusPerimeter;whiteSpace=wrap;html=1;align=center;" parent="1" vertex="1">
          <mxGeometry x="1170" y="70" width="110" height="60" as="geometry" />
        </mxCell>
        <mxCell id="KgRT0N7U9_jlhOVH3Q5B-157" value="" style="endArrow=none;html=1;rounded=0;" parent="1" source="KgRT0N7U9_jlhOVH3Q5B-146" target="KgRT0N7U9_jlhOVH3Q5B-16" edge="1">
          <mxGeometry relative="1" as="geometry">
            <mxPoint x="354" y="68.08" as="sourcePoint" />
            <mxPoint x="544" y="90.0030769230769" as="targetPoint" />
          </mxGeometry>
        </mxCell>
        <mxCell id="KgRT0N7U9_jlhOVH3Q5B-158" value="1:M" style="resizable=0;html=1;whiteSpace=wrap;align=right;verticalAlign=bottom;" parent="KgRT0N7U9_jlhOVH3Q5B-157" connectable="0" vertex="1">
          <mxGeometry x="1" relative="1" as="geometry" />
        </mxCell>
        <mxCell id="oZ6xDSacDctWAGzNHLq4-1" value="" style="endArrow=none;html=1;rounded=0;entryX=0.48;entryY=-0.013;entryDx=0;entryDy=0;entryPerimeter=0;" edge="1" parent="1" source="KgRT0N7U9_jlhOVH3Q5B-146" target="KgRT0N7U9_jlhOVH3Q5B-27">
          <mxGeometry relative="1" as="geometry">
            <mxPoint x="410" y="136" as="sourcePoint" />
            <mxPoint x="458" y="130" as="targetPoint" />
          </mxGeometry>
        </mxCell>
        <mxCell id="oZ6xDSacDctWAGzNHLq4-2" value="1:1" style="resizable=0;html=1;whiteSpace=wrap;align=right;verticalAlign=bottom;" connectable="0" vertex="1" parent="oZ6xDSacDctWAGzNHLq4-1">
          <mxGeometry x="1" relative="1" as="geometry" />
        </mxCell>
        <mxCell id="oZ6xDSacDctWAGzNHLq4-3" value="1:M" style="text;html=1;align=center;verticalAlign=middle;resizable=0;points=[];autosize=1;strokeColor=none;fillColor=none;" vertex="1" parent="1">
          <mxGeometry x="1200" y="40" width="40" height="30" as="geometry" />
        </mxCell>
        <mxCell id="oZ6xDSacDctWAGzNHLq4-6" value="Asociado a" style="shape=rhombus;perimeter=rhombusPerimeter;whiteSpace=wrap;html=1;align=center;" vertex="1" parent="1">
          <mxGeometry x="910" y="410" width="110" height="60" as="geometry" />
        </mxCell>
        <mxCell id="oZ6xDSacDctWAGzNHLq4-15" value="" style="endArrow=none;html=1;rounded=0;entryX=0.5;entryY=1;entryDx=0;entryDy=0;exitX=0.5;exitY=0;exitDx=0;exitDy=0;" edge="1" parent="1" source="KgRT0N7U9_jlhOVH3Q5B-53" target="oZ6xDSacDctWAGzNHLq4-6">
          <mxGeometry relative="1" as="geometry">
            <mxPoint x="1070.3600000000001" y="518.6999999999999" as="sourcePoint" />
            <mxPoint x="1029.9959402121503" y="430" as="targetPoint" />
          </mxGeometry>
        </mxCell>
        <mxCell id="oZ6xDSacDctWAGzNHLq4-16" value="1:1" style="resizable=0;html=1;whiteSpace=wrap;align=right;verticalAlign=bottom;" connectable="0" vertex="1" parent="oZ6xDSacDctWAGzNHLq4-15">
          <mxGeometry x="1" relative="1" as="geometry">
            <mxPoint y="50" as="offset" />
          </mxGeometry>
        </mxCell>
        <mxCell id="oZ6xDSacDctWAGzNHLq4-13" value="" style="endArrow=none;html=1;rounded=0;exitX=0.5;exitY=0;exitDx=0;exitDy=0;entryX=0.535;entryY=1;entryDx=0;entryDy=0;entryPerimeter=0;" edge="1" parent="1" source="oZ6xDSacDctWAGzNHLq4-6" target="KgRT0N7U9_jlhOVH3Q5B-15">
          <mxGeometry relative="1" as="geometry">
            <mxPoint x="1020.36" y="448.69999999999993" as="sourcePoint" />
            <mxPoint x="979.9959402121505" y="360" as="targetPoint" />
            <Array as="points" />
          </mxGeometry>
        </mxCell>
        <mxCell id="oZ6xDSacDctWAGzNHLq4-14" value="1:1" style="resizable=0;html=1;whiteSpace=wrap;align=right;verticalAlign=bottom;" connectable="0" vertex="1" parent="oZ6xDSacDctWAGzNHLq4-13">
          <mxGeometry x="1" relative="1" as="geometry">
            <mxPoint y="20" as="offset" />
          </mxGeometry>
        </mxCell>
        <mxCell id="oZ6xDSacDctWAGzNHLq4-17" value="1:1" style="text;html=1;align=center;verticalAlign=middle;resizable=0;points=[];autosize=1;strokeColor=none;fillColor=none;" vertex="1" parent="1">
          <mxGeometry x="1020" y="425" width="40" height="30" as="geometry" />
        </mxCell>
        <mxCell id="oZ6xDSacDctWAGzNHLq4-29" value="Asigna" style="shape=rhombus;perimeter=rhombusPerimeter;whiteSpace=wrap;html=1;align=center;" vertex="1" parent="1">
          <mxGeometry x="700" y="675" width="110" height="60" as="geometry" />
        </mxCell>
        <mxCell id="oZ6xDSacDctWAGzNHLq4-30" value="" style="endArrow=none;html=1;rounded=0;entryX=1;entryY=0.5;entryDx=0;entryDy=0;exitX=0.012;exitY=0.806;exitDx=0;exitDy=0;exitPerimeter=0;" edge="1" parent="1" target="oZ6xDSacDctWAGzNHLq4-29" source="oZ6xDSacDctWAGzNHLq4-5">
          <mxGeometry relative="1" as="geometry">
            <mxPoint x="755" y="798" as="sourcePoint" />
            <mxPoint x="819.9959402121503" y="698" as="targetPoint" />
          </mxGeometry>
        </mxCell>
        <mxCell id="oZ6xDSacDctWAGzNHLq4-31" value="1:M" style="resizable=0;html=1;whiteSpace=wrap;align=right;verticalAlign=bottom;" connectable="0" vertex="1" parent="oZ6xDSacDctWAGzNHLq4-30">
          <mxGeometry x="1" relative="1" as="geometry">
            <mxPoint x="60" y="20" as="offset" />
          </mxGeometry>
        </mxCell>
        <mxCell id="oZ6xDSacDctWAGzNHLq4-32" value="" style="endArrow=none;html=1;rounded=0;exitX=0.5;exitY=0;exitDx=0;exitDy=0;entryX=0.538;entryY=1.019;entryDx=0;entryDy=0;entryPerimeter=0;" edge="1" parent="1" source="oZ6xDSacDctWAGzNHLq4-29" target="KgRT0N7U9_jlhOVH3Q5B-37">
          <mxGeometry relative="1" as="geometry">
            <mxPoint x="810.3600000000001" y="716.6999999999999" as="sourcePoint" />
            <mxPoint x="753" y="630" as="targetPoint" />
            <Array as="points" />
          </mxGeometry>
        </mxCell>
        <mxCell id="oZ6xDSacDctWAGzNHLq4-33" value="1:1" style="resizable=0;html=1;whiteSpace=wrap;align=right;verticalAlign=bottom;" connectable="0" vertex="1" parent="oZ6xDSacDctWAGzNHLq4-32">
          <mxGeometry x="1" relative="1" as="geometry">
            <mxPoint y="20" as="offset" />
          </mxGeometry>
        </mxCell>
        <mxCell id="oZ6xDSacDctWAGzNHLq4-34" value="1:M" style="text;html=1;align=center;verticalAlign=middle;resizable=0;points=[];autosize=1;strokeColor=none;fillColor=none;" vertex="1" parent="1">
          <mxGeometry x="680" y="670" width="40" height="30" as="geometry" />
        </mxCell>
        <mxCell id="oZ6xDSacDctWAGzNHLq4-36" value="Asociado a" style="shape=rhombus;perimeter=rhombusPerimeter;whiteSpace=wrap;html=1;align=center;" vertex="1" parent="1">
          <mxGeometry x="1140" y="675" width="110" height="60" as="geometry" />
        </mxCell>
        <mxCell id="oZ6xDSacDctWAGzNHLq4-39" value="" style="endArrow=none;html=1;rounded=0;exitX=0.5;exitY=0;exitDx=0;exitDy=0;entryX=0.54;entryY=1.011;entryDx=0;entryDy=0;entryPerimeter=0;" edge="1" parent="1" source="oZ6xDSacDctWAGzNHLq4-36">
          <mxGeometry relative="1" as="geometry">
            <mxPoint x="1250.3600000000001" y="716.6999999999999" as="sourcePoint" />
            <mxPoint x="1196" y="620" as="targetPoint" />
            <Array as="points" />
          </mxGeometry>
        </mxCell>
        <mxCell id="oZ6xDSacDctWAGzNHLq4-40" value="1:1" style="resizable=0;html=1;whiteSpace=wrap;align=right;verticalAlign=bottom;" connectable="0" vertex="1" parent="oZ6xDSacDctWAGzNHLq4-39">
          <mxGeometry x="1" relative="1" as="geometry">
            <mxPoint y="20" as="offset" />
          </mxGeometry>
        </mxCell>
        <mxCell id="oZ6xDSacDctWAGzNHLq4-41" value="1:M" style="text;html=1;align=center;verticalAlign=middle;resizable=0;points=[];autosize=1;strokeColor=none;fillColor=none;" vertex="1" parent="1">
          <mxGeometry x="1220" y="660" width="40" height="30" as="geometry" />
        </mxCell>
        <mxCell id="oZ6xDSacDctWAGzNHLq4-42" value="" style="endArrow=none;html=1;rounded=0;entryX=1.005;entryY=0.771;entryDx=0;entryDy=0;exitX=0;exitY=0.5;exitDx=0;exitDy=0;entryPerimeter=0;" edge="1" parent="1" source="oZ6xDSacDctWAGzNHLq4-36" target="oZ6xDSacDctWAGzNHLq4-5">
          <mxGeometry relative="1" as="geometry">
            <mxPoint x="1130" y="720" as="sourcePoint" />
            <mxPoint x="1070" y="725" as="targetPoint" />
          </mxGeometry>
        </mxCell>
        <mxCell id="oZ6xDSacDctWAGzNHLq4-43" value="1:M" style="resizable=0;html=1;whiteSpace=wrap;align=right;verticalAlign=bottom;" connectable="0" vertex="1" parent="oZ6xDSacDctWAGzNHLq4-42">
          <mxGeometry x="1" relative="1" as="geometry">
            <mxPoint x="29" y="17" as="offset" />
          </mxGeometry>
        </mxCell>
        <mxCell id="oZ6xDSacDctWAGzNHLq4-45" value="Realiza" style="shape=rhombus;perimeter=rhombusPerimeter;whiteSpace=wrap;html=1;align=center;" vertex="1" parent="1">
          <mxGeometry x="720" y="165" width="110" height="60" as="geometry" />
        </mxCell>
        <mxCell id="oZ6xDSacDctWAGzNHLq4-48" value="" style="endArrow=none;html=1;rounded=0;exitX=0;exitY=0.5;exitDx=0;exitDy=0;entryX=1;entryY=0.5;entryDx=0;entryDy=0;" edge="1" parent="1" source="oZ6xDSacDctWAGzNHLq4-45" target="KgRT0N7U9_jlhOVH3Q5B-100">
          <mxGeometry relative="1" as="geometry">
            <mxPoint x="870.3600000000001" y="373.69999999999993" as="sourcePoint" />
            <mxPoint x="813" y="287" as="targetPoint" />
            <Array as="points" />
          </mxGeometry>
        </mxCell>
        <mxCell id="oZ6xDSacDctWAGzNHLq4-49" value="1:M" style="resizable=0;html=1;whiteSpace=wrap;align=right;verticalAlign=bottom;" connectable="0" vertex="1" parent="oZ6xDSacDctWAGzNHLq4-48">
          <mxGeometry x="1" relative="1" as="geometry">
            <mxPoint x="25" y="25" as="offset" />
          </mxGeometry>
        </mxCell>
        <mxCell id="oZ6xDSacDctWAGzNHLq4-50" value="M:1" style="text;html=1;align=center;verticalAlign=middle;resizable=0;points=[];autosize=1;strokeColor=none;fillColor=none;" vertex="1" parent="1">
          <mxGeometry x="755" y="135" width="40" height="30" as="geometry" />
        </mxCell>
        <mxCell id="oZ6xDSacDctWAGzNHLq4-51" value="" style="endArrow=none;html=1;rounded=0;exitX=1;exitY=0.5;exitDx=0;exitDy=0;entryX=0.007;entryY=0.075;entryDx=0;entryDy=0;entryPerimeter=0;" edge="1" parent="1" source="oZ6xDSacDctWAGzNHLq4-45" target="KgRT0N7U9_jlhOVH3Q5B-53">
          <mxGeometry relative="1" as="geometry">
            <mxPoint x="775" y="260" as="sourcePoint" />
            <mxPoint x="870" y="550" as="targetPoint" />
            <Array as="points">
              <mxPoint x="870" y="195" />
              <mxPoint x="870" y="546" />
            </Array>
          </mxGeometry>
        </mxCell>
        <mxCell id="oZ6xDSacDctWAGzNHLq4-52" value="1:1" style="resizable=0;html=1;whiteSpace=wrap;align=right;verticalAlign=bottom;" connectable="0" vertex="1" parent="oZ6xDSacDctWAGzNHLq4-51">
          <mxGeometry x="1" relative="1" as="geometry">
            <mxPoint x="19" y="-26" as="offset" />
          </mxGeometry>
        </mxCell>
        <mxCell id="oZ6xDSacDctWAGzNHLq4-55" value="Clasifica en" style="shape=rhombus;perimeter=rhombusPerimeter;whiteSpace=wrap;html=1;align=center;" vertex="1" parent="1">
          <mxGeometry x="545" y="320" width="110" height="60" as="geometry" />
        </mxCell>
        <mxCell id="oZ6xDSacDctWAGzNHLq4-56" value="" style="endArrow=none;html=1;rounded=0;entryX=0.5;entryY=1;entryDx=0;entryDy=0;exitX=0.54;exitY=0.004;exitDx=0;exitDy=0;exitPerimeter=0;" edge="1" parent="1" target="oZ6xDSacDctWAGzNHLq4-55" source="KgRT0N7U9_jlhOVH3Q5B-81">
          <mxGeometry relative="1" as="geometry">
            <mxPoint x="602" y="424" as="sourcePoint" />
            <mxPoint x="409.99594021215034" y="338" as="targetPoint" />
          </mxGeometry>
        </mxCell>
        <mxCell id="oZ6xDSacDctWAGzNHLq4-57" value="M:1" style="resizable=0;html=1;whiteSpace=wrap;align=right;verticalAlign=bottom;" connectable="0" vertex="1" parent="oZ6xDSacDctWAGzNHLq4-56">
          <mxGeometry x="1" relative="1" as="geometry">
            <mxPoint x="80" y="-30" as="offset" />
          </mxGeometry>
        </mxCell>
        <mxCell id="oZ6xDSacDctWAGzNHLq4-58" value="" style="endArrow=none;html=1;rounded=0;exitX=0.5;exitY=0;exitDx=0;exitDy=0;entryX=0.532;entryY=1;entryDx=0;entryDy=0;entryPerimeter=0;" edge="1" parent="1" source="oZ6xDSacDctWAGzNHLq4-55" target="KgRT0N7U9_jlhOVH3Q5B-102">
          <mxGeometry relative="1" as="geometry">
            <mxPoint x="400.3600000000001" y="356.69999999999993" as="sourcePoint" />
            <mxPoint x="346" y="260" as="targetPoint" />
            <Array as="points" />
          </mxGeometry>
        </mxCell>
        <mxCell id="oZ6xDSacDctWAGzNHLq4-59" value="1:M" style="resizable=0;html=1;whiteSpace=wrap;align=right;verticalAlign=bottom;" connectable="0" vertex="1" parent="oZ6xDSacDctWAGzNHLq4-58">
          <mxGeometry x="1" relative="1" as="geometry">
            <mxPoint x="-4" y="20" as="offset" />
          </mxGeometry>
        </mxCell>
        <mxCell id="oZ6xDSacDctWAGzNHLq4-60" value="1:1" style="text;html=1;align=center;verticalAlign=middle;resizable=0;points=[];autosize=1;strokeColor=none;fillColor=none;" vertex="1" parent="1">
          <mxGeometry x="560" y="395" width="40" height="30" as="geometry" />
        </mxCell>
        <mxCell id="oZ6xDSacDctWAGzNHLq4-61" value="Incluye" style="shape=rhombus;perimeter=rhombusPerimeter;whiteSpace=wrap;html=1;align=center;" vertex="1" parent="1">
          <mxGeometry x="359" y="165" width="110" height="60" as="geometry" />
        </mxCell>
        <mxCell id="oZ6xDSacDctWAGzNHLq4-62" value="" style="endArrow=none;html=1;rounded=0;entryX=1;entryY=0.5;entryDx=0;entryDy=0;exitX=0;exitY=0.5;exitDx=0;exitDy=0;" edge="1" parent="1" target="oZ6xDSacDctWAGzNHLq4-61" source="KgRT0N7U9_jlhOVH3Q5B-100">
          <mxGeometry relative="1" as="geometry">
            <mxPoint x="415" y="260" as="sourcePoint" />
            <mxPoint x="223.99594021215034" y="178" as="targetPoint" />
          </mxGeometry>
        </mxCell>
        <mxCell id="oZ6xDSacDctWAGzNHLq4-63" value="1:M" style="resizable=0;html=1;whiteSpace=wrap;align=right;verticalAlign=bottom;" connectable="0" vertex="1" parent="oZ6xDSacDctWAGzNHLq4-62">
          <mxGeometry x="1" relative="1" as="geometry">
            <mxPoint x="-40" y="-40" as="offset" />
          </mxGeometry>
        </mxCell>
        <mxCell id="oZ6xDSacDctWAGzNHLq4-64" value="" style="endArrow=none;html=1;rounded=0;exitX=0;exitY=0.5;exitDx=0;exitDy=0;entryX=1;entryY=0.5;entryDx=0;entryDy=0;" edge="1" parent="1" source="oZ6xDSacDctWAGzNHLq4-61" target="KgRT0N7U9_jlhOVH3Q5B-120">
          <mxGeometry relative="1" as="geometry">
            <mxPoint x="214.36000000000013" y="196.69999999999993" as="sourcePoint" />
            <mxPoint x="413" y="110" as="targetPoint" />
            <Array as="points" />
          </mxGeometry>
        </mxCell>
        <mxCell id="oZ6xDSacDctWAGzNHLq4-65" value="1:1" style="resizable=0;html=1;whiteSpace=wrap;align=right;verticalAlign=bottom;" connectable="0" vertex="1" parent="oZ6xDSacDctWAGzNHLq4-64">
          <mxGeometry x="1" relative="1" as="geometry">
            <mxPoint x="30" y="25" as="offset" />
          </mxGeometry>
        </mxCell>
        <mxCell id="oZ6xDSacDctWAGzNHLq4-66" value="1:M" style="resizable=0;html=1;whiteSpace=wrap;align=right;verticalAlign=bottom;" connectable="0" vertex="1" parent="1">
          <mxGeometry x="520" y="220" as="geometry" />
        </mxCell>
        <mxCell id="oZ6xDSacDctWAGzNHLq4-67" value="Clasifica como" style="shape=rhombus;perimeter=rhombusPerimeter;whiteSpace=wrap;html=1;align=center;" vertex="1" parent="1">
          <mxGeometry x="-10" y="50" width="110" height="60" as="geometry" />
        </mxCell>
        <mxCell id="oZ6xDSacDctWAGzNHLq4-68" value="" style="endArrow=none;html=1;rounded=0;entryX=1;entryY=0.5;entryDx=0;entryDy=0;exitX=0;exitY=0.5;exitDx=0;exitDy=0;" edge="1" parent="1" target="oZ6xDSacDctWAGzNHLq4-67">
          <mxGeometry relative="1" as="geometry">
            <mxPoint x="140" y="80" as="sourcePoint" />
            <mxPoint x="-161.00405978784966" y="63" as="targetPoint" />
          </mxGeometry>
        </mxCell>
        <mxCell id="oZ6xDSacDctWAGzNHLq4-69" value="1:M" style="resizable=0;html=1;whiteSpace=wrap;align=right;verticalAlign=bottom;" connectable="0" vertex="1" parent="oZ6xDSacDctWAGzNHLq4-68">
          <mxGeometry x="1" relative="1" as="geometry">
            <mxPoint x="-40" y="-40" as="offset" />
          </mxGeometry>
        </mxCell>
        <mxCell id="oZ6xDSacDctWAGzNHLq4-70" value="" style="endArrow=none;html=1;rounded=0;exitX=0;exitY=0.5;exitDx=0;exitDy=0;entryX=0.998;entryY=0.67;entryDx=0;entryDy=0;entryPerimeter=0;" edge="1" parent="1" source="oZ6xDSacDctWAGzNHLq4-67" target="KgRT0N7U9_jlhOVH3Q5B-104">
          <mxGeometry relative="1" as="geometry">
            <mxPoint x="-170.63999999999987" y="81.69999999999993" as="sourcePoint" />
            <mxPoint x="-50" y="80" as="targetPoint" />
            <Array as="points" />
          </mxGeometry>
        </mxCell>
        <mxCell id="oZ6xDSacDctWAGzNHLq4-71" value="1:1" style="resizable=0;html=1;whiteSpace=wrap;align=right;verticalAlign=bottom;" connectable="0" vertex="1" parent="oZ6xDSacDctWAGzNHLq4-70">
          <mxGeometry x="1" relative="1" as="geometry">
            <mxPoint x="22" y="20" as="offset" />
          </mxGeometry>
        </mxCell>
        <mxCell id="oZ6xDSacDctWAGzNHLq4-72" value="1:1" style="resizable=0;html=1;whiteSpace=wrap;align=right;verticalAlign=bottom;" connectable="0" vertex="1" parent="1">
          <mxGeometry x="140.0000996801572" y="100.00023846523439" as="geometry" />
        </mxCell>
        <mxCell id="oZ6xDSacDctWAGzNHLq4-73" value="Publicado por" style="shape=rhombus;perimeter=rhombusPerimeter;whiteSpace=wrap;html=1;align=center;" vertex="1" parent="1">
          <mxGeometry x="-10" y="250" width="110" height="60" as="geometry" />
        </mxCell>
        <mxCell id="oZ6xDSacDctWAGzNHLq4-74" value="" style="endArrow=none;html=1;rounded=0;entryX=1;entryY=0.5;entryDx=0;entryDy=0;exitX=0;exitY=0.5;exitDx=0;exitDy=0;" edge="1" parent="1" target="oZ6xDSacDctWAGzNHLq4-73">
          <mxGeometry relative="1" as="geometry">
            <mxPoint x="140" y="280" as="sourcePoint" />
            <mxPoint x="-161.00405978784966" y="263" as="targetPoint" />
          </mxGeometry>
        </mxCell>
        <mxCell id="oZ6xDSacDctWAGzNHLq4-75" value="1:M" style="resizable=0;html=1;whiteSpace=wrap;align=right;verticalAlign=bottom;" connectable="0" vertex="1" parent="oZ6xDSacDctWAGzNHLq4-74">
          <mxGeometry x="1" relative="1" as="geometry">
            <mxPoint x="-40" y="-40" as="offset" />
          </mxGeometry>
        </mxCell>
        <mxCell id="oZ6xDSacDctWAGzNHLq4-76" value="" style="endArrow=none;html=1;rounded=0;exitX=0;exitY=0.5;exitDx=0;exitDy=0;entryX=0.998;entryY=0.67;entryDx=0;entryDy=0;entryPerimeter=0;" edge="1" parent="1" source="oZ6xDSacDctWAGzNHLq4-73">
          <mxGeometry relative="1" as="geometry">
            <mxPoint x="-170.63999999999987" y="281.69999999999993" as="sourcePoint" />
            <mxPoint x="-60" y="280" as="targetPoint" />
            <Array as="points" />
          </mxGeometry>
        </mxCell>
        <mxCell id="oZ6xDSacDctWAGzNHLq4-77" value="1:1" style="resizable=0;html=1;whiteSpace=wrap;align=right;verticalAlign=bottom;" connectable="0" vertex="1" parent="oZ6xDSacDctWAGzNHLq4-76">
          <mxGeometry x="1" relative="1" as="geometry">
            <mxPoint x="22" y="20" as="offset" />
          </mxGeometry>
        </mxCell>
        <mxCell id="oZ6xDSacDctWAGzNHLq4-78" value="1:M" style="resizable=0;html=1;whiteSpace=wrap;align=right;verticalAlign=bottom;" connectable="0" vertex="1" parent="1">
          <mxGeometry x="137.0000996801572" y="300.00023846523436" as="geometry" />
        </mxCell>
        <mxCell id="oZ6xDSacDctWAGzNHLq4-81" value="Categoriza en" style="shape=rhombus;perimeter=rhombusPerimeter;whiteSpace=wrap;html=1;align=center;" vertex="1" parent="1">
          <mxGeometry x="-40" y="520" width="110" height="60" as="geometry" />
        </mxCell>
        <mxCell id="oZ6xDSacDctWAGzNHLq4-82" value="" style="endArrow=none;html=1;rounded=0;entryX=1;entryY=0.5;entryDx=0;entryDy=0;exitX=0;exitY=0.5;exitDx=0;exitDy=0;" edge="1" parent="1" target="oZ6xDSacDctWAGzNHLq4-81">
          <mxGeometry relative="1" as="geometry">
            <mxPoint x="110" y="550" as="sourcePoint" />
            <mxPoint x="-191.00405978784966" y="533" as="targetPoint" />
          </mxGeometry>
        </mxCell>
        <mxCell id="oZ6xDSacDctWAGzNHLq4-83" value="N:M" style="resizable=0;html=1;whiteSpace=wrap;align=right;verticalAlign=bottom;" connectable="0" vertex="1" parent="oZ6xDSacDctWAGzNHLq4-82">
          <mxGeometry x="1" relative="1" as="geometry">
            <mxPoint x="-40" y="-40" as="offset" />
          </mxGeometry>
        </mxCell>
        <mxCell id="oZ6xDSacDctWAGzNHLq4-84" value="" style="endArrow=none;html=1;rounded=0;exitX=0;exitY=0.5;exitDx=0;exitDy=0;entryX=0.998;entryY=0.67;entryDx=0;entryDy=0;entryPerimeter=0;" edge="1" parent="1" source="oZ6xDSacDctWAGzNHLq4-81">
          <mxGeometry relative="1" as="geometry">
            <mxPoint x="-200.63999999999987" y="551.6999999999999" as="sourcePoint" />
            <mxPoint x="-90" y="550" as="targetPoint" />
            <Array as="points" />
          </mxGeometry>
        </mxCell>
        <mxCell id="oZ6xDSacDctWAGzNHLq4-85" value="1:M" style="resizable=0;html=1;whiteSpace=wrap;align=right;verticalAlign=bottom;" connectable="0" vertex="1" parent="oZ6xDSacDctWAGzNHLq4-84">
          <mxGeometry x="1" relative="1" as="geometry">
            <mxPoint x="22" y="20" as="offset" />
          </mxGeometry>
        </mxCell>
        <mxCell id="oZ6xDSacDctWAGzNHLq4-86" value="1:M" style="resizable=0;html=1;whiteSpace=wrap;align=right;verticalAlign=bottom;" connectable="0" vertex="1" parent="1">
          <mxGeometry x="-51.995217391304486" y="576" as="geometry">
            <mxPoint x="160" y="-6" as="offset" />
          </mxGeometry>
        </mxCell>
        <mxCell id="oZ6xDSacDctWAGzNHLq4-87" value="Clasifica en" style="shape=rhombus;perimeter=rhombusPerimeter;whiteSpace=wrap;html=1;align=center;" vertex="1" parent="1">
          <mxGeometry x="155" y="410" width="110" height="60" as="geometry" />
        </mxCell>
        <mxCell id="oZ6xDSacDctWAGzNHLq4-88" value="" style="endArrow=none;html=1;rounded=0;entryX=0.5;entryY=1;entryDx=0;entryDy=0;exitX=0.526;exitY=0.004;exitDx=0;exitDy=0;exitPerimeter=0;" edge="1" parent="1" target="oZ6xDSacDctWAGzNHLq4-87" source="KgRT0N7U9_jlhOVH3Q5B-107">
          <mxGeometry relative="1" as="geometry">
            <mxPoint x="206" y="510" as="sourcePoint" />
            <mxPoint x="14.995940212150344" y="428" as="targetPoint" />
          </mxGeometry>
        </mxCell>
        <mxCell id="oZ6xDSacDctWAGzNHLq4-89" value="N:M" style="resizable=0;html=1;whiteSpace=wrap;align=right;verticalAlign=bottom;" connectable="0" vertex="1" parent="oZ6xDSacDctWAGzNHLq4-88">
          <mxGeometry x="1" relative="1" as="geometry">
            <mxPoint x="80" y="-30" as="offset" />
          </mxGeometry>
        </mxCell>
        <mxCell id="oZ6xDSacDctWAGzNHLq4-90" value="" style="endArrow=none;html=1;rounded=0;exitX=0.5;exitY=0;exitDx=0;exitDy=0;entryX=0.501;entryY=0.983;entryDx=0;entryDy=0;entryPerimeter=0;" edge="1" parent="1" source="oZ6xDSacDctWAGzNHLq4-87" target="KgRT0N7U9_jlhOVH3Q5B-125">
          <mxGeometry relative="1" as="geometry">
            <mxPoint x="5.360000000000127" y="446.69999999999993" as="sourcePoint" />
            <mxPoint x="204" y="360" as="targetPoint" />
            <Array as="points" />
          </mxGeometry>
        </mxCell>
        <mxCell id="oZ6xDSacDctWAGzNHLq4-91" value="1:M" style="resizable=0;html=1;whiteSpace=wrap;align=right;verticalAlign=bottom;" connectable="0" vertex="1" parent="oZ6xDSacDctWAGzNHLq4-90">
          <mxGeometry x="1" relative="1" as="geometry">
            <mxPoint x="-4" y="20" as="offset" />
          </mxGeometry>
        </mxCell>
        <mxCell id="oZ6xDSacDctWAGzNHLq4-92" value="1:M" style="resizable=0;html=1;whiteSpace=wrap;align=right;verticalAlign=bottom;" connectable="0" vertex="1" parent="1">
          <mxGeometry x="205.00020806032717" y="510.0000447532411" as="geometry" />
        </mxCell>
        <mxCell id="oZ6xDSacDctWAGzNHLq4-94" value="Se Clasifica en" style="shape=rhombus;perimeter=rhombusPerimeter;whiteSpace=wrap;html=1;align=center;" vertex="1" parent="1">
          <mxGeometry x="1324" y="350" width="110" height="60" as="geometry" />
        </mxCell>
        <mxCell id="oZ6xDSacDctWAGzNHLq4-95" value="" style="endArrow=none;html=1;rounded=0;entryX=1;entryY=0.5;entryDx=0;entryDy=0;exitX=0;exitY=0.5;exitDx=0;exitDy=0;" edge="1" parent="1" target="oZ6xDSacDctWAGzNHLq4-94">
          <mxGeometry relative="1" as="geometry">
            <mxPoint x="1490" y="380" as="sourcePoint" />
            <mxPoint x="1188.9959402121503" y="363" as="targetPoint" />
          </mxGeometry>
        </mxCell>
        <mxCell id="oZ6xDSacDctWAGzNHLq4-96" value="M:1" style="resizable=0;html=1;whiteSpace=wrap;align=right;verticalAlign=bottom;" connectable="0" vertex="1" parent="oZ6xDSacDctWAGzNHLq4-95">
          <mxGeometry x="1" relative="1" as="geometry">
            <mxPoint x="-40" y="-35" as="offset" />
          </mxGeometry>
        </mxCell>
        <mxCell id="oZ6xDSacDctWAGzNHLq4-97" value="" style="endArrow=none;html=1;rounded=0;exitX=0;exitY=0.5;exitDx=0;exitDy=0;entryX=1.006;entryY=-0.028;entryDx=0;entryDy=0;entryPerimeter=0;" edge="1" parent="1" source="oZ6xDSacDctWAGzNHLq4-94" target="KgRT0N7U9_jlhOVH3Q5B-10">
          <mxGeometry relative="1" as="geometry">
            <mxPoint x="1179.3600000000001" y="381.69999999999993" as="sourcePoint" />
            <mxPoint x="1080" y="239" as="targetPoint" />
            <Array as="points">
              <mxPoint x="1080" y="380" />
              <mxPoint x="1080" y="240" />
            </Array>
          </mxGeometry>
        </mxCell>
        <mxCell id="oZ6xDSacDctWAGzNHLq4-98" value="1:M" style="resizable=0;html=1;whiteSpace=wrap;align=right;verticalAlign=bottom;" connectable="0" vertex="1" parent="oZ6xDSacDctWAGzNHLq4-97">
          <mxGeometry x="1" relative="1" as="geometry">
            <mxPoint x="30" y="25" as="offset" />
          </mxGeometry>
        </mxCell>
        <mxCell id="oZ6xDSacDctWAGzNHLq4-99" value="1:1" style="resizable=0;html=1;whiteSpace=wrap;align=right;verticalAlign=bottom;" connectable="0" vertex="1" parent="1">
          <mxGeometry x="1480.0038669601972" y="399.9971612743403" as="geometry" />
        </mxCell>
        <mxCell id="oZ6xDSacDctWAGzNHLq4-102" value="Identificado" style="shape=rhombus;perimeter=rhombusPerimeter;whiteSpace=wrap;html=1;align=center;" vertex="1" parent="1">
          <mxGeometry x="1329" y="505" width="110" height="60" as="geometry" />
        </mxCell>
        <mxCell id="oZ6xDSacDctWAGzNHLq4-103" value="" style="endArrow=none;html=1;rounded=0;entryX=1;entryY=0.5;entryDx=0;entryDy=0;exitX=0;exitY=0.5;exitDx=0;exitDy=0;" edge="1" parent="1" target="oZ6xDSacDctWAGzNHLq4-102">
          <mxGeometry relative="1" as="geometry">
            <mxPoint x="1495" y="535" as="sourcePoint" />
            <mxPoint x="1193.9959402121503" y="518" as="targetPoint" />
          </mxGeometry>
        </mxCell>
        <mxCell id="oZ6xDSacDctWAGzNHLq4-104" value="M:1" style="resizable=0;html=1;whiteSpace=wrap;align=right;verticalAlign=bottom;" connectable="0" vertex="1" parent="oZ6xDSacDctWAGzNHLq4-103">
          <mxGeometry x="1" relative="1" as="geometry">
            <mxPoint x="-79" y="-15" as="offset" />
          </mxGeometry>
        </mxCell>
        <mxCell id="oZ6xDSacDctWAGzNHLq4-105" value="" style="endArrow=none;html=1;rounded=0;exitX=0.5;exitY=0;exitDx=0;exitDy=0;entryX=1;entryY=0.5;entryDx=0;entryDy=0;" edge="1" parent="1" source="oZ6xDSacDctWAGzNHLq4-102" target="KgRT0N7U9_jlhOVH3Q5B-6">
          <mxGeometry relative="1" as="geometry">
            <mxPoint x="1184.3600000000001" y="536.6999999999999" as="sourcePoint" />
            <mxPoint x="1250" y="535" as="targetPoint" />
            <Array as="points">
              <mxPoint x="1384" y="480" />
              <mxPoint x="1320" y="480" />
              <mxPoint x="1120" y="480" />
              <mxPoint x="1120" y="165" />
            </Array>
          </mxGeometry>
        </mxCell>
        <mxCell id="oZ6xDSacDctWAGzNHLq4-106" value="1:M" style="resizable=0;html=1;whiteSpace=wrap;align=right;verticalAlign=bottom;" connectable="0" vertex="1" parent="oZ6xDSacDctWAGzNHLq4-105">
          <mxGeometry x="1" relative="1" as="geometry">
            <mxPoint x="30" y="25" as="offset" />
          </mxGeometry>
        </mxCell>
        <mxCell id="oZ6xDSacDctWAGzNHLq4-107" value="1:1" style="resizable=0;html=1;whiteSpace=wrap;align=right;verticalAlign=bottom;" connectable="0" vertex="1" parent="1">
          <mxGeometry x="1480" y="530" as="geometry" />
        </mxCell>
        <mxCell id="oZ6xDSacDctWAGzNHLq4-109" value="Indica" style="shape=rhombus;perimeter=rhombusPerimeter;whiteSpace=wrap;html=1;align=center;" vertex="1" parent="1">
          <mxGeometry x="359" y="320" width="110" height="60" as="geometry" />
        </mxCell>
        <mxCell id="oZ6xDSacDctWAGzNHLq4-110" value="" style="endArrow=none;html=1;rounded=0;entryX=0.5;entryY=1;entryDx=0;entryDy=0;exitX=0.5;exitY=0;exitDx=0;exitDy=0;" edge="1" parent="1" target="oZ6xDSacDctWAGzNHLq4-109">
          <mxGeometry relative="1" as="geometry">
            <mxPoint x="414" y="425" as="sourcePoint" />
            <mxPoint x="218.99594021215034" y="338" as="targetPoint" />
          </mxGeometry>
        </mxCell>
        <mxCell id="oZ6xDSacDctWAGzNHLq4-111" value="M:1" style="resizable=0;html=1;whiteSpace=wrap;align=right;verticalAlign=bottom;" connectable="0" vertex="1" parent="oZ6xDSacDctWAGzNHLq4-110">
          <mxGeometry x="1" relative="1" as="geometry">
            <mxPoint x="80" y="-30" as="offset" />
          </mxGeometry>
        </mxCell>
        <mxCell id="oZ6xDSacDctWAGzNHLq4-112" value="" style="endArrow=none;html=1;rounded=0;exitX=0.5;exitY=0;exitDx=0;exitDy=0;entryX=0.002;entryY=0.011;entryDx=0;entryDy=0;entryPerimeter=0;" edge="1" parent="1" source="oZ6xDSacDctWAGzNHLq4-109" target="KgRT0N7U9_jlhOVH3Q5B-102">
          <mxGeometry relative="1" as="geometry">
            <mxPoint x="209.36000000000013" y="356.69999999999993" as="sourcePoint" />
            <mxPoint x="520" y="240" as="targetPoint" />
            <Array as="points">
              <mxPoint x="414" y="240" />
            </Array>
          </mxGeometry>
        </mxCell>
        <mxCell id="oZ6xDSacDctWAGzNHLq4-113" value="1:M" style="resizable=0;html=1;whiteSpace=wrap;align=right;verticalAlign=bottom;" connectable="0" vertex="1" parent="oZ6xDSacDctWAGzNHLq4-112">
          <mxGeometry x="1" relative="1" as="geometry">
            <mxPoint x="-10" y="20" as="offset" />
          </mxGeometry>
        </mxCell>
        <mxCell id="oZ6xDSacDctWAGzNHLq4-115" value="1:1" style="resizable=0;html=1;whiteSpace=wrap;align=right;verticalAlign=bottom;" connectable="0" vertex="1" parent="1">
          <mxGeometry x="442" y="424.0019047619048" as="geometry" />
        </mxCell>
        <mxCell id="oZ6xDSacDctWAGzNHLq4-118" value="Tiene" style="shape=rhombus;perimeter=rhombusPerimeter;whiteSpace=wrap;html=1;align=center;" vertex="1" parent="1">
          <mxGeometry x="1294" y="760" width="110" height="60" as="geometry" />
        </mxCell>
        <mxCell id="oZ6xDSacDctWAGzNHLq4-119" value="" style="endArrow=none;html=1;rounded=0;entryX=1;entryY=0.5;entryDx=0;entryDy=0;exitX=0;exitY=0.5;exitDx=0;exitDy=0;" edge="1" parent="1" target="oZ6xDSacDctWAGzNHLq4-118">
          <mxGeometry relative="1" as="geometry">
            <mxPoint x="1460" y="790" as="sourcePoint" />
            <mxPoint x="1158.9959402121503" y="773" as="targetPoint" />
          </mxGeometry>
        </mxCell>
        <mxCell id="oZ6xDSacDctWAGzNHLq4-120" value="1:M" style="resizable=0;html=1;whiteSpace=wrap;align=right;verticalAlign=bottom;" connectable="0" vertex="1" parent="oZ6xDSacDctWAGzNHLq4-119">
          <mxGeometry x="1" relative="1" as="geometry">
            <mxPoint x="-40" y="-40" as="offset" />
          </mxGeometry>
        </mxCell>
        <mxCell id="oZ6xDSacDctWAGzNHLq4-121" value="" style="endArrow=none;html=1;rounded=0;exitX=0;exitY=0.5;exitDx=0;exitDy=0;entryX=0.475;entryY=1.021;entryDx=0;entryDy=0;entryPerimeter=0;" edge="1" parent="1" source="oZ6xDSacDctWAGzNHLq4-118" target="KgRT0N7U9_jlhOVH3Q5B-57">
          <mxGeometry relative="1" as="geometry">
            <mxPoint x="1149.3600000000001" y="791.6999999999999" as="sourcePoint" />
            <mxPoint x="1215" y="790" as="targetPoint" />
            <Array as="points">
              <mxPoint x="960" y="790" />
            </Array>
          </mxGeometry>
        </mxCell>
        <mxCell id="oZ6xDSacDctWAGzNHLq4-122" value="1:1" style="resizable=0;html=1;whiteSpace=wrap;align=right;verticalAlign=bottom;" connectable="0" vertex="1" parent="oZ6xDSacDctWAGzNHLq4-121">
          <mxGeometry x="1" relative="1" as="geometry">
            <mxPoint x="30" y="25" as="offset" />
          </mxGeometry>
        </mxCell>
        <mxCell id="oZ6xDSacDctWAGzNHLq4-123" value="1:M" style="resizable=0;html=1;whiteSpace=wrap;align=right;verticalAlign=bottom;" connectable="0" vertex="1" parent="1">
          <mxGeometry x="1450.0049823183745" y="815.0020305891228" as="geometry" />
        </mxCell>
        <mxCell id="oZ6xDSacDctWAGzNHLq4-125" value="Corresponde" style="shape=rhombus;perimeter=rhombusPerimeter;whiteSpace=wrap;html=1;align=center;" vertex="1" parent="1">
          <mxGeometry x="265" y="690" width="110" height="60" as="geometry" />
        </mxCell>
        <mxCell id="oZ6xDSacDctWAGzNHLq4-126" value="" style="endArrow=none;html=1;rounded=0;entryX=0.5;entryY=1;entryDx=0;entryDy=0;exitX=0.526;exitY=0.004;exitDx=0;exitDy=0;exitPerimeter=0;" edge="1" parent="1" target="oZ6xDSacDctWAGzNHLq4-125">
          <mxGeometry relative="1" as="geometry">
            <mxPoint x="320" y="790" as="sourcePoint" />
            <mxPoint x="124.99594021215034" y="708" as="targetPoint" />
          </mxGeometry>
        </mxCell>
        <mxCell id="oZ6xDSacDctWAGzNHLq4-127" value="N:M" style="resizable=0;html=1;whiteSpace=wrap;align=right;verticalAlign=bottom;" connectable="0" vertex="1" parent="oZ6xDSacDctWAGzNHLq4-126">
          <mxGeometry x="1" relative="1" as="geometry">
            <mxPoint x="80" y="-30" as="offset" />
          </mxGeometry>
        </mxCell>
        <mxCell id="oZ6xDSacDctWAGzNHLq4-128" value="" style="endArrow=none;html=1;rounded=0;exitX=0.5;exitY=0;exitDx=0;exitDy=0;entryX=0.998;entryY=0.317;entryDx=0;entryDy=0;entryPerimeter=0;" edge="1" parent="1" source="oZ6xDSacDctWAGzNHLq4-125" target="KgRT0N7U9_jlhOVH3Q5B-123">
          <mxGeometry relative="1" as="geometry">
            <mxPoint x="115.36000000000013" y="726.6999999999999" as="sourcePoint" />
            <mxPoint x="320" y="280" as="targetPoint" />
            <Array as="points">
              <mxPoint x="320" y="280" />
            </Array>
          </mxGeometry>
        </mxCell>
        <mxCell id="oZ6xDSacDctWAGzNHLq4-129" value="1:M" style="resizable=0;html=1;whiteSpace=wrap;align=right;verticalAlign=bottom;" connectable="0" vertex="1" parent="oZ6xDSacDctWAGzNHLq4-128">
          <mxGeometry x="1" relative="1" as="geometry">
            <mxPoint x="30" y="20" as="offset" />
          </mxGeometry>
        </mxCell>
        <mxCell id="oZ6xDSacDctWAGzNHLq4-130" value="1:M" style="resizable=0;html=1;whiteSpace=wrap;align=right;verticalAlign=bottom;" connectable="0" vertex="1" parent="1">
          <mxGeometry x="330.0047675667614" y="779.9962868944317" as="geometry">
            <mxPoint x="18" as="offset" />
          </mxGeometry>
        </mxCell>
        <mxCell id="oZ6xDSacDctWAGzNHLq4-131" value="Escrito por" style="shape=rhombus;perimeter=rhombusPerimeter;whiteSpace=wrap;html=1;align=center;" vertex="1" parent="1">
          <mxGeometry x="60" y="810" width="110" height="60" as="geometry" />
        </mxCell>
        <mxCell id="oZ6xDSacDctWAGzNHLq4-132" value="" style="endArrow=none;html=1;rounded=0;entryX=1;entryY=0.5;entryDx=0;entryDy=0;exitX=-0.01;exitY=0.681;exitDx=0;exitDy=0;exitPerimeter=0;" edge="1" parent="1" target="oZ6xDSacDctWAGzNHLq4-131" source="KgRT0N7U9_jlhOVH3Q5B-112">
          <mxGeometry relative="1" as="geometry">
            <mxPoint x="170" y="840" as="sourcePoint" />
            <mxPoint x="-131.00405978784966" y="823" as="targetPoint" />
          </mxGeometry>
        </mxCell>
        <mxCell id="oZ6xDSacDctWAGzNHLq4-133" value="N:M" style="resizable=0;html=1;whiteSpace=wrap;align=right;verticalAlign=bottom;" connectable="0" vertex="1" parent="oZ6xDSacDctWAGzNHLq4-132">
          <mxGeometry x="1" relative="1" as="geometry">
            <mxPoint x="-40" y="-40" as="offset" />
          </mxGeometry>
        </mxCell>
        <mxCell id="oZ6xDSacDctWAGzNHLq4-134" value="" style="endArrow=none;html=1;rounded=0;exitX=0;exitY=0.5;exitDx=0;exitDy=0;entryX=0.998;entryY=0.67;entryDx=0;entryDy=0;entryPerimeter=0;" edge="1" parent="1" source="oZ6xDSacDctWAGzNHLq4-131">
          <mxGeometry relative="1" as="geometry">
            <mxPoint x="-140.63999999999987" y="841.6999999999999" as="sourcePoint" />
            <mxPoint x="-30" y="840" as="targetPoint" />
            <Array as="points" />
          </mxGeometry>
        </mxCell>
        <mxCell id="oZ6xDSacDctWAGzNHLq4-135" value="1:M" style="resizable=0;html=1;whiteSpace=wrap;align=right;verticalAlign=bottom;" connectable="0" vertex="1" parent="oZ6xDSacDctWAGzNHLq4-134">
          <mxGeometry x="1" relative="1" as="geometry">
            <mxPoint x="22" y="20" as="offset" />
          </mxGeometry>
        </mxCell>
        <mxCell id="oZ6xDSacDctWAGzNHLq4-136" value="1:M" style="resizable=0;html=1;whiteSpace=wrap;align=right;verticalAlign=bottom;" connectable="0" vertex="1" parent="1">
          <mxGeometry x="230.00380952380962" y="860" as="geometry" />
        </mxCell>
        <mxCell id="oZ6xDSacDctWAGzNHLq4-137" value="Tiene" style="shape=rhombus;perimeter=rhombusPerimeter;whiteSpace=wrap;html=1;align=center;" vertex="1" parent="1">
          <mxGeometry x="1040" y="880" width="110" height="60" as="geometry" />
        </mxCell>
        <mxCell id="oZ6xDSacDctWAGzNHLq4-138" value="" style="endArrow=none;html=1;rounded=0;entryX=0.5;entryY=1;entryDx=0;entryDy=0;exitX=0.526;exitY=0.004;exitDx=0;exitDy=0;exitPerimeter=0;" edge="1" parent="1" target="oZ6xDSacDctWAGzNHLq4-137">
          <mxGeometry relative="1" as="geometry">
            <mxPoint x="1095" y="980" as="sourcePoint" />
            <mxPoint x="899.9959402121503" y="898" as="targetPoint" />
          </mxGeometry>
        </mxCell>
        <mxCell id="oZ6xDSacDctWAGzNHLq4-139" value="M:1" style="resizable=0;html=1;whiteSpace=wrap;align=right;verticalAlign=bottom;" connectable="0" vertex="1" parent="oZ6xDSacDctWAGzNHLq4-138">
          <mxGeometry x="1" relative="1" as="geometry">
            <mxPoint x="80" y="-30" as="offset" />
          </mxGeometry>
        </mxCell>
        <mxCell id="oZ6xDSacDctWAGzNHLq4-140" value="" style="endArrow=none;html=1;rounded=0;exitX=0.5;exitY=0;exitDx=0;exitDy=0;entryX=1;entryY=0.659;entryDx=0;entryDy=0;entryPerimeter=0;" edge="1" parent="1" target="KgRT0N7U9_jlhOVH3Q5B-14">
          <mxGeometry relative="1" as="geometry">
            <mxPoint x="1094.88" y="880" as="sourcePoint" />
            <mxPoint x="1095" y="320" as="targetPoint" />
            <Array as="points">
              <mxPoint x="1095" y="320" />
            </Array>
          </mxGeometry>
        </mxCell>
        <mxCell id="oZ6xDSacDctWAGzNHLq4-141" value="1:M" style="resizable=0;html=1;whiteSpace=wrap;align=right;verticalAlign=bottom;" connectable="0" vertex="1" parent="oZ6xDSacDctWAGzNHLq4-140">
          <mxGeometry x="1" relative="1" as="geometry">
            <mxPoint x="30" y="25" as="offset" />
          </mxGeometry>
        </mxCell>
        <mxCell id="oZ6xDSacDctWAGzNHLq4-142" value="1:1" style="resizable=0;html=1;whiteSpace=wrap;align=right;verticalAlign=bottom;" connectable="0" vertex="1" parent="1">
          <mxGeometry x="1090" y="980" as="geometry" />
        </mxCell>
        <mxCell id="oZ6xDSacDctWAGzNHLq4-144" value="Pertenece" style="shape=rhombus;perimeter=rhombusPerimeter;whiteSpace=wrap;html=1;align=center;" vertex="1" parent="1">
          <mxGeometry x="852" y="1010" width="110" height="60" as="geometry" />
        </mxCell>
        <mxCell id="oZ6xDSacDctWAGzNHLq4-145" value="" style="endArrow=none;html=1;rounded=0;entryX=1;entryY=0.5;entryDx=0;entryDy=0;" edge="1" parent="1" target="oZ6xDSacDctWAGzNHLq4-144">
          <mxGeometry relative="1" as="geometry">
            <mxPoint x="1025" y="1040" as="sourcePoint" />
            <mxPoint x="660.9959402121503" y="1023" as="targetPoint" />
          </mxGeometry>
        </mxCell>
        <mxCell id="oZ6xDSacDctWAGzNHLq4-146" value="1:M" style="resizable=0;html=1;whiteSpace=wrap;align=right;verticalAlign=bottom;" connectable="0" vertex="1" parent="oZ6xDSacDctWAGzNHLq4-145">
          <mxGeometry x="1" relative="1" as="geometry">
            <mxPoint x="-40" y="-40" as="offset" />
          </mxGeometry>
        </mxCell>
        <mxCell id="oZ6xDSacDctWAGzNHLq4-147" value="" style="endArrow=none;html=1;rounded=0;exitX=0;exitY=0.5;exitDx=0;exitDy=0;entryX=0.998;entryY=0.67;entryDx=0;entryDy=0;entryPerimeter=0;" edge="1" parent="1" source="oZ6xDSacDctWAGzNHLq4-144">
          <mxGeometry relative="1" as="geometry">
            <mxPoint x="651.3600000000001" y="1041.6999999999998" as="sourcePoint" />
            <mxPoint x="762" y="1040" as="targetPoint" />
            <Array as="points" />
          </mxGeometry>
        </mxCell>
        <mxCell id="oZ6xDSacDctWAGzNHLq4-148" value="1:1" style="resizable=0;html=1;whiteSpace=wrap;align=right;verticalAlign=bottom;" connectable="0" vertex="1" parent="oZ6xDSacDctWAGzNHLq4-147">
          <mxGeometry x="1" relative="1" as="geometry">
            <mxPoint x="22" y="20" as="offset" />
          </mxGeometry>
        </mxCell>
        <mxCell id="oZ6xDSacDctWAGzNHLq4-149" value="1:M" style="resizable=0;html=1;whiteSpace=wrap;align=right;verticalAlign=bottom;" connectable="0" vertex="1" parent="1">
          <mxGeometry x="1020.0028571428574" y="1060" as="geometry" />
        </mxCell>
        <mxCell id="oZ6xDSacDctWAGzNHLq4-150" value="Pertenece" style="shape=rhombus;perimeter=rhombusPerimeter;whiteSpace=wrap;html=1;align=center;" vertex="1" parent="1">
          <mxGeometry x="447" y="1010" width="110" height="60" as="geometry" />
        </mxCell>
        <mxCell id="oZ6xDSacDctWAGzNHLq4-151" value="" style="endArrow=none;html=1;rounded=0;entryX=1;entryY=0.5;entryDx=0;entryDy=0;" edge="1" parent="1" target="oZ6xDSacDctWAGzNHLq4-150">
          <mxGeometry relative="1" as="geometry">
            <mxPoint x="620" y="1040" as="sourcePoint" />
            <mxPoint x="255.99594021215034" y="1023" as="targetPoint" />
          </mxGeometry>
        </mxCell>
        <mxCell id="oZ6xDSacDctWAGzNHLq4-152" value="1:M" style="resizable=0;html=1;whiteSpace=wrap;align=right;verticalAlign=bottom;" connectable="0" vertex="1" parent="oZ6xDSacDctWAGzNHLq4-151">
          <mxGeometry x="1" relative="1" as="geometry">
            <mxPoint x="-40" y="-40" as="offset" />
          </mxGeometry>
        </mxCell>
        <mxCell id="oZ6xDSacDctWAGzNHLq4-153" value="" style="endArrow=none;html=1;rounded=0;exitX=0;exitY=0.5;exitDx=0;exitDy=0;" edge="1" parent="1" source="oZ6xDSacDctWAGzNHLq4-150">
          <mxGeometry relative="1" as="geometry">
            <mxPoint x="246.36000000000013" y="1041.6999999999998" as="sourcePoint" />
            <mxPoint x="360" y="1040" as="targetPoint" />
            <Array as="points" />
          </mxGeometry>
        </mxCell>
        <mxCell id="oZ6xDSacDctWAGzNHLq4-154" value="1:1" style="resizable=0;html=1;whiteSpace=wrap;align=right;verticalAlign=bottom;" connectable="0" vertex="1" parent="oZ6xDSacDctWAGzNHLq4-153">
          <mxGeometry x="1" relative="1" as="geometry">
            <mxPoint x="22" y="20" as="offset" />
          </mxGeometry>
        </mxCell>
        <mxCell id="oZ6xDSacDctWAGzNHLq4-155" value="1:M" style="resizable=0;html=1;whiteSpace=wrap;align=right;verticalAlign=bottom;" connectable="0" vertex="1" parent="1">
          <mxGeometry x="615.0028571428575" y="1060" as="geometry" />
        </mxCell>
        <mxCell id="oZ6xDSacDctWAGzNHLq4-162" value="Pertenece" style="shape=rhombus;perimeter=rhombusPerimeter;whiteSpace=wrap;html=1;align=center;" vertex="1" parent="1">
          <mxGeometry x="46" y="1010" width="110" height="60" as="geometry" />
        </mxCell>
        <mxCell id="oZ6xDSacDctWAGzNHLq4-163" value="" style="endArrow=none;html=1;rounded=0;entryX=1;entryY=0.5;entryDx=0;entryDy=0;" edge="1" parent="1" target="oZ6xDSacDctWAGzNHLq4-162">
          <mxGeometry relative="1" as="geometry">
            <mxPoint x="219" y="1040" as="sourcePoint" />
            <mxPoint x="-145.00405978784966" y="1023" as="targetPoint" />
          </mxGeometry>
        </mxCell>
        <mxCell id="oZ6xDSacDctWAGzNHLq4-164" value="1:M" style="resizable=0;html=1;whiteSpace=wrap;align=right;verticalAlign=bottom;" connectable="0" vertex="1" parent="oZ6xDSacDctWAGzNHLq4-163">
          <mxGeometry x="1" relative="1" as="geometry">
            <mxPoint x="-40" y="-40" as="offset" />
          </mxGeometry>
        </mxCell>
        <mxCell id="oZ6xDSacDctWAGzNHLq4-165" value="" style="endArrow=none;html=1;rounded=0;exitX=0;exitY=0.5;exitDx=0;exitDy=0;" edge="1" parent="1" source="oZ6xDSacDctWAGzNHLq4-162">
          <mxGeometry relative="1" as="geometry">
            <mxPoint x="-154.63999999999987" y="1041.6999999999998" as="sourcePoint" />
            <mxPoint x="-41" y="1040" as="targetPoint" />
            <Array as="points" />
          </mxGeometry>
        </mxCell>
        <mxCell id="oZ6xDSacDctWAGzNHLq4-166" value="1:1" style="resizable=0;html=1;whiteSpace=wrap;align=right;verticalAlign=bottom;" connectable="0" vertex="1" parent="oZ6xDSacDctWAGzNHLq4-165">
          <mxGeometry x="1" relative="1" as="geometry">
            <mxPoint x="22" y="20" as="offset" />
          </mxGeometry>
        </mxCell>
        <mxCell id="oZ6xDSacDctWAGzNHLq4-167" value="1:M" style="resizable=0;html=1;whiteSpace=wrap;align=right;verticalAlign=bottom;" connectable="0" vertex="1" parent="1">
          <mxGeometry x="214.00285714285747" y="1060" as="geometry" />
        </mxCell>
        <mxCell id="oZ6xDSacDctWAGzNHLq4-168" value="Pertenece" style="shape=rhombus;perimeter=rhombusPerimeter;whiteSpace=wrap;html=1;align=center;" vertex="1" parent="1">
          <mxGeometry x="-353" y="1010" width="110" height="60" as="geometry" />
        </mxCell>
        <mxCell id="oZ6xDSacDctWAGzNHLq4-169" value="" style="endArrow=none;html=1;rounded=0;entryX=1;entryY=0.5;entryDx=0;entryDy=0;" edge="1" parent="1" target="oZ6xDSacDctWAGzNHLq4-168">
          <mxGeometry relative="1" as="geometry">
            <mxPoint x="-180" y="1040" as="sourcePoint" />
            <mxPoint x="-544.0040597878497" y="1023" as="targetPoint" />
          </mxGeometry>
        </mxCell>
        <mxCell id="oZ6xDSacDctWAGzNHLq4-170" value="1:M" style="resizable=0;html=1;whiteSpace=wrap;align=right;verticalAlign=bottom;" connectable="0" vertex="1" parent="oZ6xDSacDctWAGzNHLq4-169">
          <mxGeometry x="1" relative="1" as="geometry">
            <mxPoint x="-87" y="-20" as="offset" />
          </mxGeometry>
        </mxCell>
        <mxCell id="oZ6xDSacDctWAGzNHLq4-171" value="" style="endArrow=none;html=1;rounded=0;exitX=0.5;exitY=0;exitDx=0;exitDy=0;entryX=0.497;entryY=0.989;entryDx=0;entryDy=0;entryPerimeter=0;" edge="1" parent="1" source="oZ6xDSacDctWAGzNHLq4-168" target="KgRT0N7U9_jlhOVH3Q5B-132">
          <mxGeometry relative="1" as="geometry">
            <mxPoint x="-553.6399999999999" y="1041.6999999999998" as="sourcePoint" />
            <mxPoint x="-440" y="1040" as="targetPoint" />
            <Array as="points" />
          </mxGeometry>
        </mxCell>
        <mxCell id="oZ6xDSacDctWAGzNHLq4-172" value="1:1" style="resizable=0;html=1;whiteSpace=wrap;align=right;verticalAlign=bottom;" connectable="0" vertex="1" parent="oZ6xDSacDctWAGzNHLq4-171">
          <mxGeometry x="1" relative="1" as="geometry">
            <mxPoint x="22" y="20" as="offset" />
          </mxGeometry>
        </mxCell>
        <mxCell id="oZ6xDSacDctWAGzNHLq4-173" value="1:M" style="resizable=0;html=1;whiteSpace=wrap;align=right;verticalAlign=bottom;" connectable="0" vertex="1" parent="1">
          <mxGeometry x="-189.99580645161294" y="1060" as="geometry" />
        </mxCell>
      </root>
    </mxGraphModel>
  </diagram>
</mxfile>
